<mxfile host="65bd71144e">
    <diagram id="kroa2Enb3uIKMZ7xdOIZ" name="第 1 页">
        <mxGraphModel dx="1053" dy="1831" grid="1" gridSize="10" guides="1" tooltips="1" connect="1" arrows="1" fold="1" page="1" pageScale="1" pageWidth="827" pageHeight="1169" math="0" shadow="0">
            <root>
                <mxCell id="0"/>
                <mxCell id="1" parent="0"/>
                <mxCell id="10" style="edgeStyle=none;html=1;entryX=-0.028;entryY=0.324;entryDx=0;entryDy=0;fontSize=18;entryPerimeter=0;exitX=1.022;exitY=0.338;exitDx=0;exitDy=0;exitPerimeter=0;endSize=14;" parent="1" source="2" target="4" edge="1">
                    <mxGeometry relative="1" as="geometry"/>
                </mxCell>
                <mxCell id="2" value="" style="rounded=0;whiteSpace=wrap;html=1;" parent="1" vertex="1">
                    <mxGeometry x="60" y="-280" width="120" height="820" as="geometry"/>
                </mxCell>
                <mxCell id="3" value="客户端" style="text;html=1;align=center;verticalAlign=middle;resizable=0;points=[];autosize=1;strokeColor=none;fillColor=none;" parent="1" vertex="1">
                    <mxGeometry x="90" y="-335" width="60" height="30" as="geometry"/>
                </mxCell>
                <mxCell id="13" style="edgeStyle=none;html=1;exitX=-0.035;exitY=0.595;exitDx=0;exitDy=0;entryX=1.003;entryY=0.624;entryDx=0;entryDy=0;entryPerimeter=0;fontSize=18;endSize=14;exitPerimeter=0;" parent="1" source="4" target="2" edge="1">
                    <mxGeometry relative="1" as="geometry"/>
                </mxCell>
                <mxCell id="4" value="" style="rounded=0;whiteSpace=wrap;html=1;" parent="1" vertex="1">
                    <mxGeometry x="990" y="-280" width="120" height="865" as="geometry"/>
                </mxCell>
                <mxCell id="5" value="服务端" style="text;html=1;align=center;verticalAlign=middle;resizable=0;points=[];autosize=1;strokeColor=none;fillColor=none;" parent="1" vertex="1">
                    <mxGeometry x="1020" y="-335" width="60" height="30" as="geometry"/>
                </mxCell>
                <mxCell id="15" value="updateEmp" style="text;html=1;align=center;verticalAlign=middle;resizable=0;points=[];autosize=1;strokeColor=none;fillColor=none;" parent="1" vertex="1">
                    <mxGeometry x="515" y="-320" width="80" height="30" as="geometry"/>
                </mxCell>
                <mxCell id="19" value="Emp" style="text;html=1;align=center;verticalAlign=middle;resizable=0;points=[];autosize=1;strokeColor=none;fillColor=none;fontSize=20;" parent="1" vertex="1">
                    <mxGeometry x="525" y="-360" width="60" height="40" as="geometry"/>
                </mxCell>
                <mxCell id="35" value="" style="shape=image;verticalLabelPosition=bottom;labelBackgroundColor=default;verticalAlign=top;aspect=fixed;imageAspect=0;image=data:image/png,iVBORw0KGgoAAAANSUhEUgAAAS4AAABSCAYAAADq1zlNAAATR0lEQVR4nO2dfUxc15mHH3s9i5k/sLGHOJASAgbZyDamXFq8cWobWw6VE0B2pUylxrKtqCjBWjmqaWW1aSyibFulcZRoa6dKtCJWbEUTZXGBFC1kE9IkJqE17QTshXQwCGM+XAYYbHUGa1J1/4B7uXc+8PAxM77J+0iI+3Huveeej9953/ecmVmmKMo/EYS7hPb29nhnYdEoihLvLHzlWR7vDAiCIMwXES5BEEyHCJcgCKZDhEsQBNMhwiV87dm7dy+XLl1i79698c6KECHL4jmraLPZKC0tpaGhAbfbjd1uJz09PSidz+fD4XDgdrsByMnJoaioiNraWrxeb9B+rMnJyaG4uJja2lotj5Fcs2XLFmpra7X9oqIinE4nO3fupLm5GZfLFdU879u3D4vFoh0bGRnBYrGwdu3akNe0tLRw8+ZNraxzc3PJzs7G4XAsqAxCsVSzis3NzVy8eJHq6uqI0r/xxhukpaXx8MMPL/rZ85lVDOwDJSUluN1u2tvbKSkp0co3VJna7XZ6enpob2/HarVit9uD6q6lpcVQpmq9j4yM4PF42LJlS9B9BwYGcDgcIfMbr74W2F9WxOzJERCusAKZmJgAoLKyUutM8cJqtfLQQw+RlJTE4cOHDec6OztpamoypA1sXFVVVfj9fj7//HMAent7GRkZ4cCBAwBREy+Xy8Urr7wCTHeeAwcO0NbWpj0vXAPNyckJeb+CgoKQZRDYcWKBajn97ne/C3n+jTfeYN++fSHP/e1vfzPsNzY2Br3TUpKRkYHX69WEafXq1dp2U1MT7e3t2O12PvvssznL0ev1UlNTYzhmt9sN2+np6fh8Ps6fP6+JZChhCyVmKi6Xi4KCAr7zne8Y2na0cblcZGVlYbfbcTgcrNi1axcffvhhyMS7du1iaGiIv/71r0uekaNHj5KYmAjA4cOH51R5PSUlJaxevZpz586hKAp5eXn86U9/WvL8RYIqRB0dHYbKVxSFbdu2BTU0feMKHEFsNhvr1q0DwO1289prr0U9/2o+gSALLykpidHR0YhGVUVRsFqtjIyMMDo6GrMGffLkSY4ePQrAtWvXeOutt3j66adJSEgA4L333tPSXrt2jSeeeEIbIKItSJGSnZ1NT08PMN2eAPr7+7Xzbreb06dPa/uBg196ejrFxcVBg2QgDodDs+7mQzgvKD09PUjg7pSHxdLU1MSBAwfIyclhxYsvvkh1dTUNDQ2GRKWlpZw8eZKqqqqoCNfp06cX5F4MDg6SnZ3NsWPHaGxspKamJqwVEE3UBjQ0NBQ0Ym3bto3m5uagdyopKQmq7KqqKsN+ZWWltu33+zWrKBqo+c7Ly2NwcDBkHtXtcAOLxWIhNzeXTz75hMHBQex2O1VVVTGztJxOJ++88w4HDx4E4C9/+QtlZWWGNBUVFdr5cAS6ls3NzQwNDUVV3KxWK1arleLiYoqLi7Xj4Z7p9/u1Ng9GV3EubDYbdrvdYCiMjY0xOjoa9GyYrms98bCaw6G5itXV1Zw8eRJAEy9VtKqrq8NaY0tBVlYWSUlJ2O12rly5QmFhYdi0qppfvnyZy5cvoygKDz30EIODgyQlJRliNbGgtLSUyclJsrOzQ5rW5eXl2rZa8U1NTTQ1NWG1WoNcs8BYR7RRFMXQYCsrK7XGHDhyKopCdnY2MG2yq3lub28PatA1NTWaqKtpYo3eEvN4PJw/fz5kOr1YDQ0NsX37dgC2bt3KmjVruHjxYlTzGejeKYqCzWZbsNUSyjrq6enRrLZQhsK777674Hvriba1deTIEdauXYvP56OpqYkVqlip4qVuh7LClhKr1YrFYmFsbAyAhIQEXnzxRe1cYMcOJFSniSWq6b1nzx4aGhrCulT6OENgQFwvbt3d3do91JhTS0tL1GJcavmpotTT00N2djZ+vx+YroPS0lLef//9oGtDBfYDGRgYiGv9OJ1Ofv3rX/PLX/4ybBq9WPX19bF582a2bt1KUVERCQkJtLa2xiq7wLTbGMoFg1mLN7DsVVdxbGwMv99vsI70bQ+mDYXExET27NnDxYsXKS8v16wwPaplp297DocDq9XK7t27+eCDD/B6vZol19PTE/XwQE1NjTa4ezye6eB8oHhFW7QA7rvvPm37448/1uIkegFISkqioqJC68ChXC09ejcL5p4diQb6zh7KanK5XDQ2NlJcXExjYyO7du0yiPOBAwdITk4mKyuL/v7+qM4qBmKz2fB4PBGnHxsbCzuzpLfQ7mZaW1s5ePAgW7duZXh4mISEBO655x5SU1MZHh42xMiijRru6O7u1oQBZkMSahxMP6milrPaxgOFSt/2rVYrq1ev5ssvv8Rms7Fp0yYtdjYfa394eJgf/vCH+Hw+LBZL2BnPaBO3WcUtW7bQ399PSkoKHo8Hh8OhVYQqmjdv3qS/v5+srCxcLpfmagWiBuxjKVILRZ19+/73vw/MWl0tLS38/e9/Z8OGDaSlpWm+fKxQy7WkpASYjb9EQmAHMgN9fX20tbVx8OBBioqK6OvrAyAzM5Pt27dH3U0MpKCgQBOn3NxczWrKzc0FoKurS0urt5LnQj+QZmRk4Pf78Xq9vPfee2zfvh2bzXZH0fH7/aSmpgbFYlWLTx+Pi2UsbAUYY1pAUMwrGoyPj9Pf309eXh4wrfqKotDS0mJI19vbS3FxcdhCzsnJYePGjVgsFkpKSmI6RRtIJJ1d7dyh3GE17tTS0hKXUUxPcnKy1tDvhM1mIz09HUVR7pogbn5+PufPnw9pRa5Zs4bW1lY+//xzfD4fqamptLW1cfv2bS2+FUs3MScnB4vFQldXF16vV7Ocbt68qU30BNaD+l7p6elUVVUFBdRhtj0mJiaSm5tLV1cXeXl5TE1N0dDQELQ0RxWhsbExQzvt7Ow0xMIC264a2ojlsqQVetHSC1W0xevDDz/EZrNp+4qiMDk5icvlMnR+dd1IRkZGyFm6jRs3av643W7XZhtj4Wa53W6DlaEoCmvXrjUs75jLCrFYLAaLS40x3bx5U2sc586di/p76FEnD9RGXVpaisPhMAiSPkCfk5NDSkoKIyMj2nl9/GwxweZIyM/PJz8/n2vXrhmOO51ObTFpRUWFdnzv3r2kpaVpFpYa56qurqawsJCTJ08yPj4eMzfRarVSVFREW1ubJk4OhwO73c69994bsi3bbDays7O5ffu2IRyiDnz6SZeBgQHGxsa4fv26wVDQTwyEcxVtNht+v1+bcQ7Hnj17Yh7aWBFKtPQxr1u3bkV1ZhGmF+FlZGQY3CO/368tNFUDx2rnUStobGyM119/3VDh+pXBsXJd9Pk5c+YMXq+XkpISqqqqDKv+AwOrfr+furo6TXQBPvnkEwoKCpiYmNAC5bFEzWN3dzc1NTWUlJSEHAzUwKzX68XhcIRcHxSJK7JYApdDAHOulv/BD35gEKbApQexdhNLS0sZHR3VBmx1wOjs7OTPf/6zVheq+NtsNjIyMpicnKSwsNBgac01YRVoKESCoih4PJ47Wt2xjiMfPnyYZcePH/9nPBagQrDS6zu2aq7qC00ViEiC7na7HY/HE7XRXj9RMFd+9O6fvlHpze2CggJDXtV7R3OKWV/WnZ2dfPzxx9jtdqxWa1DAVXUFWltb+da3vqVNS+vTBS6vgOCPakXCYlzNiooKHn30UW0dV0VFBT//+c9JSEjA6XTy4x//mN/85je8+eabPPjgg2FXz+vRW26REulHftRYlSpQQEgLS20PPp+PTz/9lAceeIDa2tqg9Vmh0M8Q6vuboihzTnQNDQ3xj3/8wzDRdKf+GW30yzni+llFQQjkbomRLQb5BtToI98OIQiC6RDhEgTBdIhwCYJgOkS4BEEwHSJcgiCYDhEuQRBMhwiXcFehfgmgWTF7/s3CXfXVzYLwr997mdv374p3NhbMl7cn8bc9g+X2RLyz8pVGLC7hriLWXwi51CxbtizeWfhaICvnBUEwHStG3fE1aTOzsujr7Y1rHgRBMBcr4m3arrBYxLwWBGFexD3GtXz5v8Q7C4IgmIwV8TZ2li9fTrzzIAiCuVjxzziH5pctg3jnQRAEcxH3GBcsCxvjutrzBeuzN8Q4P4Ig3O3EPcY1l3AuXx737AlfAToq8w3/53udcPchyiB8bcg74xQx+opgKuEqf7WVvl4XfXUnZg/mp3G2RuGFMih8chP1Net5bMmfvIYXajZxPKI2v4YXahTOPmmFsvXUR3wd7NuxkY7KTI6TyEsH8+koTY4wf8m8XZnPBzsSYXMmHZUbeWldZFfOlpmV4y8r1D+zJsJnLoJF1Nnx0nw6DqayT//OOjoq84P+9MfV7UiuuRNz1tf+0/yx10Vfbx0/jfDdhMiJ8mcVN1H+1HbuAwY/eo26K4u41f7T/KxklNezHuQX+uPOKW7o9yd9xHc56xQ3JmGdbn/AGdmVjeO3+ZVu3z05ZTh/vDSfQ+kzOwP95DWoi4enuH4LZn/D5TaDhkIJz6Uh4zMm3FNhUi4hi6izrskpWD277x73BaXJO2Ms8I7K/KBjodLr04UTOf195qyvC0f59oXpwfbluhP8olyfUlgs0bO41m3n8afymKi9yNy/yjYPRq8TWvumuHEtuBPGkxtDXrjmY96fS7g1RRc+BgN+x3Tfjo0cop+8M07yzjg5S0aQteEe98HoFPP+QbBJH714GYjpb9Auos48UzTOiHW0UAVKLe+wwhemvlTq+kejlMOvN9GzuG5c5NyrF4FNlEftIQDj/OTI+PSm8ypl9QGn89M4eywV1YifaOvi0G9nflKpbD31+2eH7+4L7fxEu34NL9RkslE7a7QSHntG4fH1MzuTwzz39BCXAPBy6mn1l2qGOHQkOMflr7bycgn8z/EHeeqC7sTlPvIuT282Njg5pZ1I5vBm+N//ntD2i9LBtno1+/DRiI8fval2rGF2nwl+ZljqZ8vs0vPtvK0ez0/j7GHocKeyc/0Uf7gwQd7+VJJ172ooA6b4wytXOOXUXa8rdwCu9lH2/Dh3rDNKebXtJb5LM08XHaVOd6bxo24aZ7Zn39mI3kqar/U1L8LWlxBtzPO1Nhu+QcrIp4ZGfEdmOs+NC+0cCuwcZeup3w/njsx01vw0zh7bxPFrVzjlnBYtLrTPdKo1vFCTql1a+OQmHnF3Ufa8V9v/9yc9s4K41KxbiY3btN0A1qXywfdW4fzoBrYdK8kFrSMvOatSyevu4hy5PL4/kXOvDPPIsUSygEv5aTxiG+a5I6pg61nDC/pyL1tP/W4fzz0/Hq2cGgh09+LKF9cZ3Z9OOcyv7QpzYgLhOsG7vU+wqfO/yJxnnKBwWzLJV/uCRQsoTFvJRFvfrIXh9NAxmcq6+4H7k9k4OcxzIa4DKzs3riR5VS71RbrDV1cCkQlX3VMPLqwRb86kYwecPdPNqXWpfLCQe8wLD7//rReegYm2Yd5mNY+op5xT3FiVybM1yUZLKxyrZgQvouc28FRRw52TzZMltbYi5cJRvs10oP5nTT/i208t/Xt9HTGBcP2KR7N+BSfq6Ks7MW/xig5TkXXWpeLGFG7WceibNzhxZnjawkpZie3WFF0xykIwqrs3Mxu5Su9qj3PpaiaP71eo3w9qeb095/2ih7oMIlQQPpC53MwFsf80fzwB/5GVIxbXEmKe5RBfXGf03vR5xcsufTbBxPrUkMsRLg1NkVyUOjsNX5bKzlUeLtUzHVRflczOfJjumPpYl5cB90p2Hk6jcIGvMr2so5VX90d6xQRtA+Du98y4hYm89M1Vuv1In+ni3RN3Tjs/pmN6z7VNsS7NOn1IcyPbKTvSTtmR+Yp8Ka+2uehrO73g+KhegFShCuc6qksg7hiIXwgbvkHKyICI1hITRYtrdikEADsqqNxxi8u1b/FRhFP1i8Y5xKELidQfU9g5c0gLztdf5bm0TTxbo/A4YLAKnEP8Z1syz85c132hiz/sztRu+/bzXaS/nMuzuriXMbC/9Jxq+IL7Dm6go3J63335C3Z/FLwUIBx1/aO8TAr3ZJQCS+CuBExsTE9QzLjKziF+71YM5RNrKzWUdRVOvKIawBeiwrIHMrPj+hHn3E2b6bpyOeS5vl4XmVk50zuqyR0wyyREynSskNdyeDTa3nZ+GmePJfL7I1c19/CxZxQeR51VjA6BghNOgO7kKoYSMlig63iijr5/+/QuCXF8dTCPqwiQ8k2+G7F7Jaj8tM5FX6xEC+D+ROMyCKyk26K/uDVQWMIJTSSLUQOPLdQCK89IWdB1wtyYx+JCXf+UAguYYRRii3GNF7o1XF8T9p/mj6ceJoX/4/WscuOnPYRFc1cLlyAIQijM5SoKgiAgwiUIggkR4RIEwXSIcAmCYDpEuARBMB0iXIIgmA4RLkEQTIcIlyAIpkOESxAE0yHCJQiC6RDhEgTBdIhwCYJgOkS4BEEwHSJcgiCYDhEuQRBMhwiXIAimQ4RLEATTIcIlCILpEOESBMF0iHAJgmA6RLgEQTAdIlyCIJgOES5BEEyHCJcgCKZDhEsQBNMhwiUIgukQ4RIEwXSIcAmCYDpEuARBMB0iXIIgmA4RLkEQTIcIlyAIpuP/Aba+eJdMpdCNAAAAAElFTkSuQmCC;" parent="1" vertex="1">
                    <mxGeometry x="400" y="260" width="302" height="82" as="geometry"/>
                </mxCell>
                <mxCell id="36" value="" style="shape=image;verticalLabelPosition=bottom;labelBackgroundColor=default;verticalAlign=top;aspect=fixed;imageAspect=0;image=data:image/png,iVBORw0KGgoAAAANSUhEUgAABAYAAAEsCAYAAABQVbEuAAAgAElEQVR4nOzdX0sb3f4//Pe+2U9hRIqhl7KlkOCBFSzxASQ5qE7zDAo2QvDg61dPpul9eF9eOVE8kWHHCtczSKcRfjEnv7OIghV2dgJFMJSIiPMgeh/MvzWTmckkJtE27xcIrePMrLVmzWTWZ/3JP/6Y/ddPEBEREREREdFE+n+eOgFERERERERE9HQYGCAiIiIiIiKaYAwMEBEREREREU0wBgaIiIiIiIiIJtiEBwZWoZ5f40TpczdFQ/tmgP2eqYJ2jQt19amT8bQUDe3zQ8hPnQ4iIiIiIqIxG3FgQMHJzTXawo+7AWo0zO3tnoZZQXPvazXEvb/3bo8sm8ESajgqPjKbjzWiRqms1tHWehWKgpWFFr7kK0M+e3Td6XQCNrJa973WF+oqkD3Ehc82qyy799VQCEhDIRlHs7wJzZOG7jobgRk4CjsfERERERHRczGGEQM6qjvzmJ2bx+xODUjvCw38fWTuj41tc/M4uk/hwGwgymodOTjbZufm8dZswO/KzvF0tHDk2R5V4X0K+FYVGoMRFeWBzvccyeoaEo0z7D51QgJo+RXz+h+jKdSl5XwFKG9i2ao7DUA/3Tb+9o3QwG8I9asRR84vAJM9xLuFFur29VRwcrOPWHkbVb2/9MpqHe3sLbZKrcdkm4iIiIiIaGzGO5WgXMWlDky9XLUbY0ey07re/bsGfSGJAoDEC2nEifHrKfeOcBB7fL3b6lCzzp7e3mmnl9ncT+gRL2hWr7a5bSMOSCkcWPuLveeeXnHXqAhvj7m1n/n7g7QELKwHjNYAgFVkXgPVvz0RjoBzymodF+qhkebzQxTMPFvHLWjXOFHEcnpePea7Zy1AmkHC83s5tQicfhaCI0W8HTDwo+VX3IEJIiIiIiKiZ268gYFsBkuSjstaBXg1A0m/RVPcXu7gARJiWWBXPkbTbNSOYv67rK5hytUYBKwGodXDvHUq4Z19bnFbd0+y07Nt9G4/pD+YjeIi3s4ZeTlRACgactM1bL3ZhGYds9QC9Bq2rP3tYImCk70ZfBGOiw2nsV14n8JDyUmvvZ/Zk751qrt6zJe90wWUD8jcf0W+7Ppl6Dml9CI6O8doSinkXnzF1qkO6YXT1E5srKGz4/TQv4t67YQARvtmH5kRxIUKyTjQNTpCQS6tP+lUCiIiIiIioqc0hsCAhMye2eDbW8TlzoqnIRrEaohv4/L1/pAX+1OQS8MIULi41zw4SEuuRm/4ITWhYbuOhBngsPOyU8PUxjXaG8BR1B5lJYkE4sgFHLd5pyOxcR1hHQE/q1CzcTTPPN3iPc6JhhVI0LtHGgDQT/+yr+/uWSt6+TXEaSP9D+EPJAQccjgWgi6G5z6VgoiIiIiIaNTGu8bAnBAU+H4L3TusOxvDFHR0XIGDCvJvjF71RHZIC/QpSSQa3p5yQFY/IgOn537rNGrrVMHJRhzN0rwwH96HrkN3BQwiaLjXWRDL0B6lcJb0XbwxVNjCiyHn/OWIeZG9mQ2YSkFERERERDRBnu7rCstVXOriUPNVqErKM9fbIb8c1tjyVahZybcxmHghAfcdszdfQS4d8ZxWQOO7mVZ1zTOPXcHJ3iIuiytYLunIKJ4GvF+QxPq9NQUhTFE2ghGeY2g/dGA65hssKLxP4aHsM3Ih6jl7ChiR8Jz4TqWIvLO91gK/4pCIiIiIiH5lTxcYQAX5N8d4SO8788rvj8158J6vMby5xsHrK3Ne/iMpH5DBFao+jUFj8UNr6PkaOqcRV5Yvb+JLw5kycfDiShgKr+DkZh1T1hD7omx8+4K4MF95E18awvB9a2pAeRPLpZYxXaDrKx29ZbQOlGR3UKX4GVU4ixraazV0rcLvzkvwOXuThOu59G37GX9zQ1jgwipbY60DK0+RgiXWlJKNOGBNyWDwgIiIiIiInrF//DH7r59PnYjxWYV6vo9Y+bFfNajg5GYNncjrJTwvBe0a7+62uxcjfKbHHQlFM75WkN8gQEREREREE+6fT52A8aog/2YIjVYliQR01H/BoAAA7MrzXGyvKGP22Y5mICIiIiIiGp8JCww8gqKZw8MBY0HFFTauiYiIiIiI6Jc3YVMJiIiIiIiIiEj0hIsPEhEREREREdFTY2CAiIiIiIiIaIIxMEBEREREREQ0wRgYICIiIiIiIppgDAwQERERERERTTAGBoiIiIiIiIgmGAMDRERERERERBOMgQEiIiIiIiKiCcbAABEREREREdEEY2CAiIiIiIiIaIIxMPCsrUI9v0b75hrtmzrUrM+fZA9xcXONC3V1fMka9TkVDe3zQ8jjPu9voqAFlJGioX1zjRNl/GkaqmeXj1Wo5xoKPf/GJ82KxvpMRERERE9uPIEB80X+ubwAy2odbe3ZtCpCVJB/M4/ZuWM0x3peBSdBgYgxKCTjaJY3oT3N6R8vKLDxSNHqrYKVhRa+5CtDPvuvb/j3vdHYv1ATwP0toNaDr3s2gyXUcFQ0/69oaN8YwYSHHwmcPIdAhxl4Cw1EBiho1n7X3WVsPv+t/BIRERHR8/PPcZykkJRQLdWwlM1ARuXXbfA9R+VNLJd/o3NmD/FuoYUvfq2rp8jrL0ZW15BofMVbv41FGbNFvw2/mGeTjwrybyqQ1ToOFiTod9uYfeMfkCm8TwHftp1nX1HGbFHByc06EgCO5uaxO65k+1JwsreIy5155MswggR7GgpluWe6ZLWOHI4xO2dcFGPEShPLebNsXl9hqwQcbIw8E0REREQ0oDGMGFCwMn2FarGKSywi4+2FsnuTrruHB7t6sDwjDjzbnP0UnNxoKIjHtXqwzH0O0hKwsO5/XGv4fp89vrJad+VDPGZBu8aJouDE3u70nMlqHReq0nvKgA+xl863tzGwbMW0uNNjHHMdCUjI7AVtDzqnOPXBXYZGPg99y8BVjqlF4PSz0BjxHLPrvN7t7uO6ejLFbdlDXJwfQu1Vhn0xy3UjDkgpHPj1oAbV267h8caxLtTViPXWKIvMa6D6t9hq9l5rT/3ypMe5Zkp3L3b2EBcBdaHXvRvci+zZ17wuBeF+cvIZNrXmsff9IIz0fMJXVBs1fMHHgHrtM4pD0dC+SaJeaqFZOsOKT3qMZ0r/I3e81yVKPq2AUt4MvMmpRUiIY6XnPaEglxbrnIKVBUB6nYEMQMuvYPbNLzz6h4iIiGhCjD4woCQx9a0KDRVUvwFLKeElVdHQ3pBQ3ZnH7Jzx89Z6v8we4mIvhYeSs23ZfrFWcLI3gy9z1rZjYEN8IY8jl73FlrmtubBmvFyXN7E8N4+tUx1oHPscd3BafsU+3uzcMR7SH1wNhMTGGjpmPo8acbwTXtal9DpiZWPb1imQeR+thborz2N2bhtV3WdjWNmiiLdzzu+3TiU7PcYxj9GELuzr9BoGn3MV6vk+lr5t28c9uk/hQGgQSukUUPIvAzPRyKV1zzB4azqFtZ93lw/I3B8LZe+ktaBdmz2ZTj5zYsBHSiFjbS+1kMg+dvi/Wa6lFqDXzPo3j1nZaTQF1tuibKTB/H9BW8fU6bZRN6PWW+UDMvdO486VprmA62YeW7xmOcXY7+hURyLpXD85tQipceapC+bPTg1TQvkV3rvvXacM0KNuApBSeIe/7OPCvpd6Ta0Z931vpGc53wSmZ4D8iqv+2eWmrmHKFeyCcb3Nv5162cTbIT2HvHVevF+8AQMxEJR4IUG/a9p/d/DiK44awNTLHkGFbAxT0NGxRhncrKFTqkGXZpB4dG6IiIiIaFxGHBhYhZqN4+GH8cKr1a4AsycJMOaS66d/eRoyBqMRcuxuMFiUJBKII2e/4Bo93DG7Z01HtWj1UhVRb0iIvYqaZrPx0W8vl6sH1JseuPK5e9aC9EJ4bRbyqdWuoE/HHj0/Paxsvb3sB2nJnZ6BJBCT3L2iu2ctQMyLkM/mnd51TqPX8qy/IdXfb6EvrPv01K4iNq27es+12pWnwdLCkdVg/X47+sZMr3pblI3gxY3RuOuvoWjca82zfsfYu0cU5BacxqCW/4rmQtIs1+7RCK5RMnspSEL5Ne90JDZ8RgqgV90EAKEelTex7NPY9veY+/4xKsi/CUqj0aN+WQu4lkU58DobwcaVkHLqPtfKgu4ZMeJwBXKsH9dzLgH1/Brv7rbdgZxIp9bQ3pvBl7kV5L/3tysRERERPb3RBgayGSxJMBoIduPBZzrBIBrHnpfcfl6gh03ByUYczZLTEzzexQL7I6sfkYHTo7116jfkYNz8hsFHYPd4G8OxBxl6PVYR6q2u6+6AShTexe0iKmjrSDT8e5iNxrU5nDybwRKuULXSmj3EpzScXv+dGsRaZI+gOUt2TSuZKErSNUT/KYWNGGje6fbIJSNQsYrYNOygbqByBw/2SA0zOPJqBpJ++6yfgURERETkNtLAgNXrLzaEtk6d6QS7Zy1IniH3Fq12Bd0aCuxl9hJHmhNuLmZXFxpM2o+whtcAawxYw2nNnjJZXQvpeQ7v2TUWKas+ek5uWNkmXkjAfcc8h4JcWvL8RRMdvd/e1iY6ujg9wMinHjUvvsPg+2EMmT+ye4kr6NxLrmkZhfcp11D43mka8Ns0gkYf9Kq3ioaD11f4880Kju5T+OQ5b1i9LbxP4aHvb3IwGn/WEHLjXnH/xe7fNUwlFcipRffxX81AsoaQm+f31iIA5pD5YzSF8girm0Mz6H0/1JXzV6Fmpf6DXZa+v5bRuG+t56us1pETrmfYiAGtdgUdQnkpH5CR3OXnfz8UUW9AuM/7vO+JiIiI6FkYYWBgFZnXUlcDWPuhO40CYeh01yJk5U0sl3RhATzhhbS8ieVSyxmJ0NUjKSyct7eIyx3PMN/iZ1ThLA736EXIypv40nDOefDiqmsut5TeN9NqzMN3TZEQFkRzDyG3hnmLiwFaPeJWQ2YfGWFUhl1+IWW7+3fNHH5/jfbNGjqnLU+GKsiXxfLV7OHkweesIP/mGA9CPjP3UYfDDzoMvnvRxxyc6Qq78jaq00LZTtew1c8Q6e+30IH+p1mUN/GlIUwZsIbTh9Vba969ORR+VzbLUhyKH1RvfRrB0RjX2a6bezO49I4eKVdxOb2Og9dX7tEIxc+o6k4e393VhB5i74KQ60BJuAfD7vtQYfcD8Lj7voLOvXGM2LBGnCgfkBFHWfTLrH/iOg/hKsgXa4B5PQ9eX6HqXZMjSHkTyyU412QDOIo4hWNX3sbla/fzzb7vrSlWG3HAmkYzqaNHiIiIiJ6xf/wx+6+fT52I4VJwcrOGzs5TTi1wK2jGvF2/RrKs1nHw4mv/c3p/J4qGdvYWWz3XdTAWOIyV5/3Xnhg6Z0HFYSwMNyph9cvt+d0bwzOEvClaXw3icMOoq8bXGaI0+DGi1w0iIiIimmT/fOoEEEX+XvpsBkuSjssxLG4mq3UcpCXop8+/UbUrz0dryCpJJKCj/tsFBR7LaIAn0BpSUAAwRtAMXm9c9W+CY4ZERERENB4MDNDzZn5tpTV/vVmaH0tvt5Zf+T3mSCuaOYwbAHRUd1aG1PD9nRTxdu55tb5/m/pHRERERL+E33AqARERERERERFFNdqvKyQiIiIiIiKiZ42BASIiIiIiIqIJxsAAERERERER0QRjYICIiIiIiIhogjEwQERERERERDTBGBggIiIiIiIimmAMDBARERERERFNMAYGiIiIiIiIiCYYAwNEREREREREE4yBASIiIiIiIqIJxsDAryR7iIsbDYWu313jQl19qlQNj6KhfXONE+UJzu1Xtr2Y6TV+zH3N69G+uUb7/BDyaFI7NAXtN6k7REREREQ0sPEEBswG1HNpgMhqHW2t39bnKtTza6Eh+Gs0/GhUFJxsSKjuzGN2bh6zczJ2AaC8ieW5ecyWWgMc06hjTxIYISIiIiKiifXPcZykkJRQLdWwlM1ARgXaOE46Is3SPN4WnzoVgvImlstPnYghKcqYfU5lGyYbwxR01H+XsiciIiIiook1hhEDClamr1AtVnGJRWSy3s2aqxfe1VsqDsv2jjjwbHP2U3Byo6EgHtcaHWDuc5CWgIV1/+MOmMeTGw2qWg8+Zkg+C9p195B0v3zupSDBfz9vL3NBu8aJGjys3X3Oa7Rv6lCFayOr9a7f9eYzqsLKjyf/7jIS9/OeM+R6PlZI2Rrn9Umrtc9eChLiyPVZh7zlbl03o7z3kZGAxIZ/Wbj2HeJolYcfCSGvQv3LHuLi/BCFsHpNRERERES/vNEHBpQkpr5VoaGC6jdgKSU0LBQNbddwbKE3PnuIi70UHkrOtuV8xdoRJ3sz+DJnbTsGNsQGdRy57C22zG3NhTWjgWUO89461YHGsc9xe3Mabd7GWRyZ11fGOXdqQPqDk56QfBa0a+TgpGXrVELOOm72EBd7i7i09tupQRfSsivPY3ZuG1Xxl2Ja09a+26gihZzQCM1N18zyMfZvllaQf2Tvd0HbR+b+2L4mTeio7phD7IuyncfZnRr0xrFQ7hXk31j7+Am4no8RWrarUM/X0LGv1zYuX3901SHj71s46rMOGdfMOedU1rjWWn5FuBbW3zjXRFbreHe37dSTb4v4NKRGemLDyetRI4534nGlFN7hLzu9rnpNRERERES/hRFPJViFmo3joWw0mrTaFT4pznSCQjIO/XTbt0EqpxYhNY6x7De0XEkigTgSN9fI2b/U0ckCKBv/rhY3zSkLRdQb61h5FTG950avraGFI2vuuCl4KoFwznIHD3uLiJnpCc7nKmLTOqpF54Ba7Qqf0jNIAEBqEVLj68ANdv30L3PfCjr3+1h6uQrAvwE75dmm5VeGMOVDQqyr3BWcKMCfb/qZMzDo9Qwmh5VtNoMlSYK0d432nvPr5iPPCRgN/IO0ODahhQTQo6xXkXktQZL20b7Zd37dSCDoevbDqSfA7lkLuaR43Ba+WEGP32naChERERER2UYbGMhmsCQB0sY12hvWL3VksoD22AZG4xiz8rAnpFeQf/P4htZzZwQfUji4ucYBYJRlH6MmguyetZDbWEf7Zh0AoJ9uewI7Zk98cRhBhxHTa9h6szncdGYP8SkNVHfmjYZ49hAXezNRE4TqzuNHdRAREREREXmNdCqB1etvD52em8fWqTOdYPesBSlgaLJWu4IeNGT8+y30hfVoq7dnD/FuoYW60EDVfujAdGxs3ygQnM8KOvcSMu+djBTepyA1zrBrpXMhae6n4KRrHvxgCu/dUzT8Aiz9rzGwCjXrni7hHV4vqx8RKz+ycetzPe31APqYdx9atuUOHqTU0Ibq217NQIKOjpn/wnvv9aygc2+N3vD+XkJGCcuftU5Dn1+56D1GNo7m2a+yAiQREREREQ3DCAMDxvBnbyND+6E7jeSibMyp91uUr7yJ5ZKOzJ7PAnDlTSyXWiHz/SVnv71FXO64pwOg+BlVGD3m/S6oFnzOECH53JW3UZ12FkLMTdewZTXUizKOGtYCd2vo7Ihz8K2GoHvBuijBkt2/a5gS8zGUBf0qyJfd18tVtoqGg7TkLj/7nNZCf+tI2NdODEr0uJ5ooqMDkMwpGFGElm0Rb3dqQHo/eFHIINYiiRtxQDLrmFVPip9R1Z0FC9/d1brWVNj9WzyvUwa78rarznZfayOoAEjGFJY+SPb59rH0bft5fesGERERERGN3D/+mP3Xz6dOxHApOLlZQ4fDrgMVtGu8u9t2evTthfgeU2bG+gyxsrAGg6KhvYGudRr6E+16ymodB6+vhj/8/1cylPImIiIiIqJJM4avK6TnZRWxac+vPEPcB5NAzDPPQX4pAfptwDcNDIn1FZQTHRQwR1wwKEBERERERAMY8bcS0PNTQb6YwcWeuMK9sbDd4xqURbwtJdF2LTTZwtHciBvrXCkfQBFv5zj+n4iIiIiIBvMbTiUgIiIiIiIioqg4lYCIiIiIiIhogjEwQERERERERDTBGBggIiIiIiIimmAMDBARERERERFNMAYGiIiIiIiIiCYYAwNEREREREREE4yBASIiIiIiIqIJxsAAERERERER0QRjYICIiIiIiIhogjEwQERERERERDTBGBigsZDVOtqa8tTJiEjByU0davap00FERERERDR64wkMKBraN9e4UFfHcrpeBm2kFrTnk4dJU9Cu0b5xfk4UwGjAX6N9fgjZ+kNFc///l2Lmx5XHKFahngvl88sEYPzJat3JSz/X0nzOPKtyCEiTK48312jfaCiMITkDla03D33Xz2HzCdx57nv/58VoDVxvAXcZ/7LPLyIiIvqVjSUwUEhKqJZqwOsMX3ioT0ajNzddw9bcPGbNn7dFa7sOHSnknkEb8HFWoZ6vAyUrj8fARrRRCwVtH5n7Y7tsjrD+6wawFA0Hr6/sa731bREHkRr4Ck42gCO7jmyjOr32pKM+ZLWOtitN85iVi84fNIRr1ojj3aiv2aBlW5Sd9Jt1swkdne+jTe6gZLWOHI5daX5b7L3fowxcb33qyZtNaCNOLhEREZHXGAIDClamr1AtVnGJRWS8L+qe3ihXz072EBfCNldjx7PN2U/ByY2Ggnhc6wXN3OcgLQEL6/7HHZC3B1A8ZkG7xokqpNfTI+Tt3WpbvWHZQ1yIPYme/4eds6sX2dMr6d63u7fS2N7fcPruXlBvT11MSFPEHtJsBktSC0chL8uX5Rqmkv1GBty98749dSktpI6Y+/u8/HeVQ5QGgvIBGdRwZDVglCQSkLCU6lU3VxGb1lH922n57J61IL1I9D6nyVX/hDKQ1Tou1EOhnPqpJ97yjVKXVqFm42iWrWu9isxrCVhIRqgrTXT0OHJWWSsfkJF0dMo9dxTy4ZPP7CEuzg+hakF1OoiCXFpCsyRjN1oS8PCj4pOm51C2brK6hkTjK/JPVrbhEi+kiGl6DmW7isxroLoTvZ4QERERjcLoAwNKElPfqtBQQfUb3A0dRUN7Q0J1x6dnJ3uIi70UHkrOtuW89eKs4GRvBl/mxN5VsdESRy57a/beHKO5YPYcljexPDePrVPd1VvnHHdwWn7F1aP2kP7geilMpBdxuWP2ZAo93LJaF3rDt1HVgWZpJdJLd9g53b3IRg+f/fKpaDh48dXZtwSnQTWsMii1oJ9uu3vqFlKIlfvsIX01A0m/RTPsb75Xcdl373ARb8XeZd0bfJCQeW3WoZ0a4LmeQWS17u45PNWdjb5Dso2Gh/xSAu470MxjtLO3ODrVIzTwK+jciwEEo5GC6Vik0TmyWse7u237um19W8Qn4bpI6ZQ9iiF6r7aCkxv36Afn+vkFrKzgSQIxyeqJVnBys49Y+RhNSIj1vLYV5N8YoyXaN9doZ2+xNRexsdXrfpBSyFg90KUWEtkIQ72zMUyhhXrRyotP8EkITuZwHLFX+ynK1n3+XBquQFT4n4+gbHvYlY/RNMu2v6DvE5RtNoMlSQdSdc8xiYiIiMbrn6M9vNFIeSgbDW+tdoVPSgYyKtAAFJJx6Kfbvo1gObUIqXGMZb/3TyWJBOJI3FwjZ/9SRycLoGz8u1q0GnlF1BvrWHkVMb3n+8jYHU4tHPXRuGhvxIVfiOkB9NO/zHxW0Lnfx9LLVQD+AYmpkG39nNNNQswsg0IyDizE0b5ZF3a9hQzYDWMtvzL4cNbsIS6SZ1iWPXloOI2f5p2O3IsErHzKat0YyWFqlowgkfxSAnDb44QV5Msf0H6vAGf9J7egfQSKK57rLNShcgcPe4vGS75dtkW8nfNWTqOn0Ok59CjKmA1oT8kpKy1GI3H2TRGyWo+U/l35GCs3+2jf7BvpPm0BLzoRrp+RXkmy9jU1nOsSds2AgHqiJJHQa9jyzWsF+TdBddtsEL06xMWNEUjLl40pAr2Z9+79MWbniiho1zi40ZCIcP/2vh9aOLKmAHy/hS7NIGFt89yD+um2T6DRrCuKhrbYUGwc21MLCto12hpcUw2eT9k6rNECbyOOFhh92fqx7k2jTrRv9u3nieV5lW0cS9jG7FzFTvOJUhz99AciIiIiwWgDA9kMliRA2rhG235J0pHJAlrEF8tAwkv18IS9/IVRcLIRF14+FZzcrEXaU6td4VM6hYObaxwARr4ivfyGn3P3rIXcxrr9Qq6fbruCLN4X5eGxRnNs9rVXUCBC+6HjIC00FoIUP6N6Hq1XX2T0mP+F5cfWxyi6AjkAoKO6s4L8Dx0H6XW8O922r3/ihQT9LnSshMkdpJDVOpYi7Secfxz5B9AdfDM1jjErN9HR15HZmMHRnBmoycYwBR31Xumzp5wY5bArbyN2vo8VBUCEej7w/RAU7PENJgXbPWshl425gnP9G1HZWrKH+JQGqjv9FdTQyzbIvTcYZj7PFQ3t7CHk4mPm7o+ybFv4Yj/zeweOiYiIiEZhpFMJrF5/cRGorVNnOsHuWQtSwBBtrXYFfSFgePj3W+gL69Hmo2YP8W7BGtJrHvuHHnmodSTmS6C1GJesriHqDO/Ce/d0ie5ghzUcdRWqkoL9Xhp6zlWoWfcUDbGnrXmnI7ERPsd/kDUGAKCgraEzzPmyxc+oinPHA1VQ/SbhXdb75m4NAfbJb/YQn158HXAqiXlc17oEFXTugYS13oGiuUZBdC/iNo/ZObNRXjxDEzouaxU7be8WhP8bB+z+FgYvRcNBWhcaGgZrnrf7njGmIWSURwzfNqdHuI77/Ra6ZK0nYiyq6NRNY8h/VznIRRjXUAcaZ3b9KbxPQRL+H5wXAK6h2wnEuqaa+5dflPuhf0XUG9HLtpCMdzdsn1XZWn8ftLbAOMu2iY7ePX0mKIhmjDryJveZlG25iks9bgSwjIRhpeu+JyIiIhq9EQYGzGHVZ+6GrvZDd4IBRRlbpxJyfovVlTexXNKR2fNZXK+8ieVSC4mNoIXjJGe/vUVcehuqxc+owuil73ceqpTe716YqryJLw3nnAcvrlDVex4KALD7dw1TG37zVr3Hteatwmeb95wV5MvushPzqfuIvlQAACAASURBVOVXcNSIu8p9WAsw5hYk/2s2sAryb7ZRnV535cWv4aLlv+JB8jYCjMY6uub7KjjZS0FaEI/bTwPGPK7kXlBTnN/c3gCqpxErAop4u3OFJVe9jdiTL65dEDC3XvthpMOYpiKmd9t1L/S9ANz3W+gQgiEAUN7En6ew6+3St1r4GhFiOvMrzjoB5tz7SCODup4X65jyrnGBJjo6AHO4uuucI7gfduV5HN0LZbvhafwv9MjncylbwA5UBa8tMM6yrSD/5hgP9rPYmEJiBPi61wI4eH2FLe/ipc+mbCvIF8XPgHUg4hozRERERMP0jz9m//XzqRMxXMaQ+s5Yh0cPrqBd492dMHc2e4iLfhqFvoxhr7GyMIRX0cyvxJrA1a9HlHd7ocGQb0yQ1bqx+NrQp730y1lYbbhTSKIc9/nck1Gu2fPBsh2dX6tsiYiIiEZtDF9XSMFWEZv2/OrVDCRE/5o1f93DqOWXEtBrdf/fjjm8eehBAeO4B2k99GsUnwvj6wiHHxQwhkb79cw/Q9ZXlf4iDVeW7ej8UmVLRERENCYj/lYCCldBvpjBxZ64KryxGNzjGrFFvC0l0XYt+tjC0dzzf2kfLr9vDnjOxx2NXXl+JKNEHvXNFeNW3hzPApNDwrIdnV+qbImIiIjG5DecSkBEREREREREUXEqAREREREREdEEY2CAiIiIiIiIaIIxMEBEREREREQ0wRgYICIiIiIiIppgDAwQERERERERTTAGBoiIiIiIiIgmGAMDRERERERERBOMgQEiIiIiIiKiCcbAABEREREREdEEY2CAiIiIiIiIaIIxMDAGslpHW1OeOhm/sVWo59donx9C7ndXRUP75honv8TleUQ+BxBab7OHuLjRUBjRuQvaNdqDHD97iIuba1yoq6NI1vPxO+Szrzqk4OSmDjU7pHMPfN+P9x58Ss/mHhzxswZ4RF55zqdh3r/Gz5jy8xTn/CUM+dn8i3qS93yxTg50bvPzzDzGL/0+QUMznsCAWXl/5UpnfKB2//waDcrh8ZaD95q6tkd8UBU074u2ghPvsQesQ+70Rv8wD8tnQRP/bz5YNcVMo/ccxnbn7428+dYd84W6/4d0rw9m98O/Lf6t62VnuA0ebxkO5V7xpDfyMUPyKav1rvvaKvvuD3ujLKOc1++Z4drPTpO7zljpcf42+jnDr6enHozjJcZTp4fyQq1oPvV0Feq5U68Hve8HvQfD6lDPvIj3o6tR7Twrgo9pXdP+yrVn3Rw67zNIrINBz/vHNzbGn0/zmon107e+Dv+cXZ9Jwzin634Qr8fg5zTuFaG+dgXpnLrifw8pONmQUN2Zx+zcPGbnZOyaWwa+713PTb96F3TOXp+9fp/33neC7nLpfp5Ey0tX2YrvJ482igBA2GeSzzPDU7/83zG6n5vOsQOeQ57jusrfSpP3s3WgsvB5PoT+ufecnrpUlDE7N4+tU91/f+/nb1c+PyJzf2zW6Xks5yv9ZsiHu4y9z1u/snW/Uwtpf/QzzKcu2HWsR/3ylr33Hgp4f+veN+pzyOezXAyKewPk9mdk7+dJv8YSGCgkJVRLNeB15pftZdmVzQ+EnRp0tHBk3khvi0+dsvGyy8HnYSSrdeTgPGSOsB7p5XhX3kYVKXwy/7agrSPROHY9pMLrUAX5N/OYfbMJzZue6Rq27PRKyHkfNOaD1Xsdw/LpzrP5YJWLQPEMTcSxIj4/shksSS18yVfMG3sNnZ1jNLuOpOBkL4WHklPPkN73PFT98xlOwcnNvuvhPzu3gnzZnX+nbg+D8aAS60K/94pR/s4LHwCj/MSXs50apjY8H87lTSz7fcCF5FPLrzjXuXE8tA9Iqw4dNQD9dNtVBrJaRzt7i61Sy39nXcdUNuRDcYB8FjR3PYh6fz6KmU7jnH71fvi89/1RIx7xvvfcg3PHeIh4Dz6mDukNHbGUGYhKzeChIV41XWiMGOlxXbNsBkv3xzhqeJ47PYTVTfffeO7BKHzrpllurrrQwpFcBFDE250akP5o3ssKTjbiaJaE59SAouTT+bsB8upLh44Ucj2ux1DPqbfw8ML8bMxmELtv+T7L+zvnKlRlEZc71ucgkFGE+yjiOf00G7DrayFp/N9gfF7FytuoBh0sG8MUdHQ8dSPSfe97PO/nyhWW9jwv1AHn7Hlc38/7CvJFsb4DgIJcGqjuCNemITyrG3G8i/Cs1vIrRr7NRoysfkQGNWzJz/NFNcpnUrMkPDfs527YO0YRb+fmXb8/agD6XRPdzyHzmX3fsZ/nBe0aB6+v7Ho0K5ad7tSv2ZKOzF4/wYFVqOfrQCPgM9+P+HluPzd1dL5H2FfR0N5z7l93+RkSLySzXIbFuH+Xvm37vveFlu3IiJ+h3ef0r1/wlP0xmgtr9rUOf39TcLIBu40o3o+RUqtLEe51K1C5gnw54vOkD2MIDChYmb5CtVjFJRaR8d5EYT2AYb03nm1h+4VHIYc0JCxqT5P1d4E9lp5o0fkhVC0gn8DAQ2KDzlnQvOVlRNx6H9+siH8X7f+vLACS0JAPzKf9QbmPE01DbsF6YXSOHViHAodSmekpOje6lv+KpmTtL9aDAaPgimY85Oy0FlFvAImkkw45tQipcWbcnOVNLM/5v+zK6hoSeg1H1qHKm/jzVHeONeiQMSWJhP6YF4OYUE6ee0W/BYRratd55QMykvcaetMVcN+L95G3d+B9Cjj9yym/8ia+NCQspayA0rh6BS1+vQ/RnidafiU8wHP/FV/ufZ6XGDSfq4hN68L9CeyetSC9SETc3x15t6919hAXnvtHVut99VbGhDrkzo94znXYKf1+G9AA0dEpK8ilJTTLTtnuyseR7ntZXUOicSy8yBRxNIR70HjudY8KOFEA+aUE3J2h8yIDGavIvLhF/S7oSEW8LbXcz9TUIh7Oitg9a7meO92fCz698kEC70H3qAzXuYSenyh1s6CtAyXhpaW8iT9PgcyehhMzMOxtwPvVk4IWMPIqSv3rNVoq6BkVoWwvyzVMJX0KoM9zWvda9z0l9BJlY5jCLep3M8hkjeBS5+w2+jm9zzF7ewX5N87nlVa7gi7NGPdhv+cUyifxQgLOzoCkMVpkBWeo2zsajTrfILJVL/dSkBBHznXcXvd9iFczkBpfhc+VKi51CbFsr3P2EPJ5b9d3M9BiPHu+hgbCHn4IHSUho/F25WM0F9ZxoWn45HoHMp+nwrNLHK0pq3VcqIrv89E43zoSkJDZ8/us09F5Ffx8dKXXrl+P+EyK8o5hyR7i3YLZOdN9IJ/31haOonS+FGUcCe8f3nN2v+cbnUhvz3onOUiUemJYhZqNQxfflwTW9cgtAFJ637cdcKKIn7+ebWrAZ4SS7OrUcwSXbfMuIAooBGz8KTi50aDaoyytNA95qo8nMBj+/lbEWyH4unvWAqZjwSM3PWl9KH/FQ2gnuhlgEgPnAzxPwow+MKAkMfWtCg0VVL/BfRMpGtqu4VnCB0L2EBeu3huxB0LByd4MvgjRHGwIFfe9ez9XhEj54Ok9HULEPnuIC1dkzq+nyfN3VqVSNBy8+OqkpwR3dElKIWNFRUstJMJ6EaMKOefu3zXoC0lhuErS3WANLAPhxrEi5aWa8yLRK59WQ3ghjmbJc03C6lDQUCrfCH8THV1C7BXgRI4H7cXMGFFBz8Nh96wF2OW3isxrCc2z3h9eiRdS10NQ+6E7D5ReQ8YCyC+7j9uXhRRi5YBeCymFnHVNd2pA+oMxDPKlBFjBEOEF0QkchNz3Vg9zVyR2FbFp98sRYHygWC8SRm9YSE/T0Ll7H44a+sARWj+7Zzoy77sbF4Pls4LOvfgSY7w4uD+wgqxCPV9Dx75e27h8bUanPcEZu86Xo45qiSNj1SHX803Byc06IPTeu+5T87niDEFMICbBue9dPSrR7nu/3pNh3INafkXobV2FqhifT07jp4nq3QwySgaxuyp2f+jBL8ffb51nKlaRea2jXoQxWkl8bhdlozzNz8WCto6p0+1ooxgC70GjDsVewdX4ll865Rapbioacuhu+Gv5v1DV40h0BYaBoHrSvNMx9dKadmG+A7yagRTlmRc2WkrR0BZ6fVyjk6KU7fcqLqfXuoMoYef09Fxbo0+W8xVPUBvukWimZu0WsZSCzItbVIsdPFj1JHRU2CrUc8+IsoAXXleQu99zdjUWiqgjiYKSBM6KwnUMYdVLz6jN5Xwlwn0f4vut553nAzKSuV/YOR9Jy/+FKlLIqYf4lNa76/zCuv3Z6b1fxBGNszs1z+gyM4C4EHcH0lHE2zkjaHCiwLgPp2vYEq63lF63P++3TmF//hjnM3qr/aZwAHHksrdmT3B37+q7O6cHeevbojk6NNpnUmKjO6jQ8x1DYHQofPb9XO5qQClJJPRbxIRARlgQSHz/sPm952cDrnFfvEGMMAnEJB2XtQrcDVHjmeU3ksrbFkpsJFEPGLGSSFvtHWO0rzU6qpCMQ7+LCQEFcdpqeNka5ShMV3k1AylSuRifDVunOhIb1ggdM7BnHFkIZnUHtsX65W2z2QGtvRQevO2SiArJOPRvVeeZ2rMNWkT9PnjEWUz9iKVv2/6fn2HPkz6MODBg3OjWy7xWu3INBS8kgyNaxodQ98sDAKOCCdFbK5JpVYTmnW5cbL9ene+30BfWAyJKA44m8EaczZ5j1wfdwjraezP44okgF5Jx1wdAe8P7YBReklwvhdap/IfChwk9Z3kTX4RhqYVkvI+XfJjDl8x8Ch/SvfNpNo7hKbcedeipSOkUfF/dxekE5stb/QlH8VllOjDhHuz+EBTqptjLIjLr51HD+VXYff+rktU6Vs4eP/TZpfgZVb/GxYB2ZSNgadyDH4FvrWhBo2wGS5L44brvvDjDCCba92Q2gyVECCTaAp5vYQHJcgcPAIBVxO5aPaLrz4OWX8HRfQoH5jDL7g/1M8Q2ZlDvp8GhfEAGt2aAo4i6dzpBUTamT5kNi2E0ZuwG3Cvg4d7oLU68kLoCdiGJNgKqvi8tZnAHPs+RgHqiWUGUbAwdc3i6GKgYlPxSgi42Jqznm9XI7Fm2FeTL/oG9vtifkUUcnTpBcTm12N3YKW+i/mIdsbM+Pq/Nz6ieL5GKhgO/l82e51RwogB/+hx/9+9bvMve9vGsGJHyJv40r2X75hrt5C2qesTh2o9SQb7cQiId0HBtuIfYi++zrtGXeylInvdC+aXxud8dYDSm7UxtXBuBL28QSPi812pX0CMFjgFAF0YmFFFvWPeKESh2eqWvcZCWhGB+78+kwKHedpa63zFsfY0WMEkpxM7ETr6P0T+Dfd/zrSk5j+s0GLwX2AyG9zlVVHz+7cruYJjz/lZB5979zi6lZ+yAwmxJd08/Cihb7YeZsmwMnYbuMwrDs1aAa9STMOqkq3zc00q2zFFpBbFc7LS2kPBMTXUCcMfAxmAjs3PTNfzpChqHtUHN8/7tDfZZ4sikg97pezxP+jDawEA2gyVJiMjspSBFGdoVRcM9t0icN23N95w9S3ZXInvO6xlWuiJI3vlHw+v9Q+PYf447PA++kIj9MIWdc/fM6pExhv5EatiWO3iwo8Zmub2agaTf2j1zoflUzCkEpRYk8UE8aB0qd/DQ9YJpRFGH8YGvn24HXE9n+LFfD0uQ5p3eFSh5dG9/wHFHzdXLOjTdH0DAKObIReGpQ+ZomOGvN2I0LpZSUYf79yJ+SK6gij7KTpxb2TXKo4pLs9dATi0CYnR8lLIZxPAZdWvKhX6LpnXfu3oJo933fr0/w7gHRbruPofTqHYPPwwkPFMLyTggpXBg9SouuKcxiecc1v1ovcAVkjOo/230Fsemoz9TZXXNPYVAYK0tc9SQ3C+TYcxpJXJqBvjbGJ7eX6DicULLtvgZ1elk9CGtZvDBCsAdpHVXw02rXZmjslaReQ2zNxCuERK78gjWPbJHTwjXLdI5zZFGRfF9ZtWpL+VNLA/rXecR9z0gvDPOzWNW7hj7jSNwXTxDE7pzLQO4hiNnD40pAsJaO96RJ5/SQLVUg26NDvDSdei+AbhR8Mzxdo3iHewzKdo7hjE6K6iRZDxvfBraroB0+KiTrvcPv/d8cwSKHVjfcJ7bkRua1jWNNFqgd7pHyRVQ9XZm9ihb6zluBfudsvWsGzHgc0OrXQUHR4pnIaOHjff6nqOaBLJaN6Yae9Ma2gZ1/ubL/SIyXdevhaOgEel2Hno/T3oZaWDA6vV3L/ThRL13z1qQzOHHXlrtCvpCQG+ZGXHpeVMVZWNYk7eX3diIt3PzOGoM4eb5futOa/YQ7xa6L47dayREfo3RDY+YDzPAGgM9z1n8jCoWkdPWMOV6qK5CVZ0VPTOvxRcwY5SEM2TGnONk/j/8nNZiUzJ2zXlb9lyZHnUomBG1FntsAj8IuoTl0+F3PQGn7n6KOI3A3kcShg/1/UEQcNz8VzQlZ2FHL1k9tK+JnFqMNgTXj/IBGVyhWobxcAo5Z9h9H6ZrPzOY5N8b4DZoPrUfujA1BOaHvPjSqOAkezu6xZ2KZ3hIr2Ep4p9HzqfZA+gtu+5vRIDx0h1yPe1IdVJDzntM5bBrKGGkUMT3W+iudQGENQbMF4qV9zPo1CrYPdOx9D6JKQD2Oh9CtD3qfd/1mTOkexBwFmZdfvMXqtMRPrv8ZA9xsWGN4FKwsuB94T52Tycw10D5843xnAq+fn34fgu8+IAVnGG33AFeJxGLuihb9hCfXl/59xArztoyxtzwiOktd/AwnUTuxS2q5SY600msRF2cK4T2Q/c8a4w5zXaQPFLZVlD9JuFdNuKorV5DTK3RfNoHZO4Hnz/qUq7iUg9e2E5W691BgYhk9SNi5SGPogoU7b73fb65GM+aqUf2uA1bIRl3ApSvZiAJ91zhfUoYcm01hv9CvmhOz3S9dyk42VvEZXEFy97eXO8536c8Qd6IjU2zl964V4zpApECfQGfSb56vGMYxzPuWd/jme/oXc/24pnvlB2/zjFZrfu+f3S9F3oXECy17EB71CBe4X3KMyq5lwqq3x7ZthjA7ln3Gjh251hY2X6/hW4/x4uo3y8il3zkaFcfRjn6d9YZ63yZ77BdjDVMogac7UUWQwMY4W3Q3TMdmeyi/35+C28P0x+z//o5mp///fl/Hn7+/O+/Pb//d/Pnz5/NnyXz//9Tffgpcv39v5uubQ/V/w3c9vPh9Of/COcNOqb3fD//87m/fG2f/nwQ0h+Unq5z2uex0ucco/QfT1asfHrP5Xdu87xd5dzjJ/CcrnJ6+Pl/tkPy2VV27rL3HtP/nOY+rmN9/vnfnz9//vzP/+1Zh7qupytdnrpg1xHhHO4UOfkNyWfpP2LezHO4jt19jfs+588e9daVLp/jhuZVvK7iNnd63fXW8//t05/uFPXOa1h+7G3e+9qTF/d+Yj6673v3OXvk03tKoe72d05nu7e+R82nb7nb+w6eT9c5XfWjuyy67rmo1zv0meB5nvR4vonl/t9//+/P//Ng7e+957znHtJ9/zP6PRhWh4xt3nwa20v/CXi+PZz+/J+w+9b+m+6yfqj+r5kPn/vcTO+gdVNMu32ckM9e57j+234+nP78H/OYfp/9//13r3rizpe3rEPz6a3fnvIMvO9Dy/bzz//6bfO737rO6VdGET7v/930ue+86QjOZ9c94b2vvJfMql9h5/SrQ//5bOaxO13OM6/X882nPgSVn0+Z+z/f3PsF1g/fc4Z99vZ41oRcp/D3VO971unP/5ppc9+P3melkR7xs824PwLepfzejV3X1XMPBuYx5J089DPJpy70eJY71054FnZdMzPfQe/+rjwGfzZ409vrPb/7+e5zbr+f7dOfD373st8181y3ru2e87rfZXv/3m+b3/8Dr2lQ2Xo+V6K3a5z7xyl/8Z7y1JGQ+8ivbHzT6lcXxP273pV+uvISfJ9528yeOuR9BvmWUcBzv8+ff/wx+6+fI4o50C8scBgMjZiCk5s1dHbG1dNCNAzOYoHP5StcZbVuLHj6TL+qi54RRTO+fmqcn3fec3alwVgYcOmbsLCh37D+x5zzN8T7fjAsNyICxvJ1hfTr6f7qHxqXIt6W9ICvBCJ6nrq+bvMZ0PLGsP0oq0vTZHMN1X6ic1oLxjmMxRid4avWV5ANPsz9KfI5brzviYgGxxEDJDC/ukgyFtcbxirWRPQbUzRjMSW0Bu/FJHoCBc1YsBGAMed3DL3o4ed0Pn8t1uewvV/juO8e3afIJ/16OGLgCZhfy+4/m56fqfQ0GBggIiIiIiIimmCcSkBEREREREQ0wRgYICIiIiIiIppgDAwQERERERERTTAGBoiIiIiIiIgmGAMDRERERERERBOMgQEiIiIiIiKiCcbAABEREREREdEEY2CAiIiIiIiIaIIxMEBEREREREQ0wRgYICIiIiIiIppgDAz0S9HQvrnGifLUCVmFev4c0hFR9hAXN9do31yjfX4I2e9vnk3ZEhERERERTY6xBAYKmtkgNH+edcNP0YIbrjS48iaW5+YxW2o9dUqIiIiIiIhI8M/RHn4V6vk+Mqhha24T2mhPNh5FGbPFp07Eb4plS0RERERENHajHTGQzWBJauHoTVBQwBgO3/YZYi6rdVyohzixRxpoKNjHPcTF+SFULWgUgiLsd40LddV9WnPIuntfc5+NOCClcGBt16wDi2mtQ8168yoMlfecs6Bd40QNG0pvHvsRIxVkte57Xr+yFf8+qGwLwvau8gviKYPo+QkuW1mtdx2noEXPJxEREREREYUbbWDg1Qwk/RZN343GaIKlb9uYnZvH7Nw8ju5TONCcFr6UTgElc1sjjndiA1VKIYNjY99SC4ms1SBchXq+hs7OvHncbVy+/ug0NhUN7Q0JVXv7PN4WAaCIt9ZQd72GLXPbrGx1YVeQfzOP2bnj7vxkD3Gxt4hL+5jHeEjvu4IVibS1fRtVpJAb4nQKWa3j4PUVtubmsZyv2L97d+eU7da3RXyyyk/RcPDiq71ttgTkhHKHlELO2r5TA9IfnMBBGGu6gHA9o+UzuGy1/Fc0pUVk7GCBgpUFHZe1CPkkIiIiIiKinkYaGJBfSiFbE4hJLXwxG7IAsHvWAqZjTo9v49hstAPNOx3Si4SwfwtHVqP9+y10aQYJwBylICGzZ/Ui7yMjSYi9Mv60kIxDP/0L+fJQsmh4NQOp8VU4ZhH1BjD10mmgOuesoHPv3mY3jANHVgRLbFwbjXzXvqvIvJYgpfftnvSDtGSXXyEZBxbWnV72jbi73MWyLVdxqUuIiYGVwNEY7pEauQVvPgdRxNEpsJSyghpJJOyyDs8nERERERER9TbSNQa0HzoO0kaDfazrC+g1bA3QyP4VNUvb6GT3caE27dECBh3VnZXAAEizNG8HXfoSsg5AQVtHonFsj7IoaNd4N8ApvLTaFT4pGcioIJGMo3kmThYIzycRERERERGFG+1UguJnVPW4e5i6rYmOLk4PWIWajUP/Vn1cg77cwYOUChxOvnvWghQ2NF4cfRDV91voC2vOdIXsId4Jw917e8waAxXk33inLlTQuZeQUfyP17zTkdjQok0PUD4ggytUeza8VxGbBvQ7czJA9hDvFiJmoZfyJr7cLyKTVbAyXcORHZgIzycRERERERH1NuKvK6wg/2Yb1el1dC/25zRo7SH/98eeXu9BFPF2pwYIw8tdi+sVZWydSsgFfX1ieRNfGnFnux3UsIbJryMBa6qCuVBeeRPLJd2ZvrCXwkNpnL3YRp6nNpz07srGWgYHPvnU8is4EvPYNSVA2LaBkMUjRRXkyy1nWP/eDC5PdWezNQVBXNzRDoSElK1p90xHZm8dKLvTEpZPIiIiIiIi6u0ff8z+6+dTJ4KekewhLvZm8GVOxu5Tp4WIiIiIiIhGbsQjBoiIiIiIiIjoOWNggIiIiIiIiGiCcSoBERERERER0QTjiAEiIiIiIiKiCcbAABEREREREdEEY2CAiIiIiIiIaIIxMEBEREREREQ0wRgYICIiIiIiIppgDAwQERERERERTTAGBoiIiIiIiIgmGAMDRERERERERBOMgQEiIiIiIiKiCcbAABEREREREdEEY2DgN1XQrnGhrj51MoiIiIiIiOiZG0tgoKBdo33j/JwowziqgpObOtTsMI4lHlZD+/wQcp+7yWodbW0oGevDKtTzYZVnf+ds3/gEHhTNdZ3d5eHsZ/yM4NoRERERERFR30YcGDAag7npGrbm5jFr/rwtjvasNCoKTm72EStvo6r7bC7K9jWenTtGc2HNbvzL6kcsfdt2tpd0ZN6PO5BCREREREREXqMNDGQzWJJaOHqzCc33Dzy9yEJPvazWcaEe4sTuYdZQMLcZIxDWkYCEzF73dqMB6xxX7NkuaNc4UQ9x0XVOc5+NOCClcODb6z0416iJiPk0kuXphTfzI6t1tG/2kZGAxEZQL3zGOW7XKAiz7PsaHVHE26iBnWwMU9DRKRv/1X7okNIfzfStQs3God81I5+ZiIiIiIiIRmO0gYFXM5D0W/g3/1ahnu+7epGP7lM4EBriUjoFlMxtjTjemQ38XdnskYaO6o7VQy1j1z7uGjr277dx+fqjq8GcSC/icsfYVkUKOQWwGr2zpRagCyMc5McPb5DVOt7dOfnc+raIT0KwIiifyB7iYkOy87h1qgONYyznK9DyK0b6daBZsvK6gnwZwnEXzXIQ8zladgBkL4WHknVNYIwm2LnC0t412jf7iJXnsZyvjD5BREREREREFGqkgQH5pRSyNYGY1MIXoXG4e9YCpmNOD3bj2O6dbt7pkF4kep80m8GSJI4k2EdGkhB75fyJfvqX2YCuoHMPTL2Mtkif0Uvf71oJq8i8liCl9+39DtKSOy/95FMsnx7C81lB/s08ZgNHcwzGCNoYgRtsCGWkaGjvmQGZnRqmNrg4IhERERER0XPwsUizNgAAIABJREFUz1EeXPuh4yA9gwQw1MZnT3oNW0Nu8AKAll8Z8Jg6qjvu3vxIylVcKikjyLEHAC0czQ0/X6NRxNHpGj69XAVQQSEZh366bZbBJpZfaWhnM5BR+UXyQ0RERERE9Hsa7VSC4mdU9ThyvvP0m+jowrB5a975t2rEhmITHd09EgAAUO7gQUq5hur35fstdMkIZgxHBZ17CRml/286gPIBmftjYUE/YWi+fezoIx7cBlljoB8KcmkJDz+cESHiSIjw0SREREREREQ0LiP+VoIK8m+2UZ1e9xmCX0H+zTEe7CH2+8jcH/cx77yCfLklLLxnLdpXxNudGiAM3e9a0C9MeRNfGnHkBll8cMEvn8CubMzxP+h3GkLxc1fZefOy+7eY11F/BaC1WKSx6KE1PcLKi/trKY11HqwpEruyux4cpPWQRSmJiIiIiIhoXP7xx+y/fj51IiiAoqGdvRWmRTgLNnLhPiIiIiIiIhqGEY8YoMfoHm6fQEyCa3g+ERERERER0WNwxMCzZowQyAjxAf2UowWIiIiIiIhoeBgYICIiIiIiIppgnEpARERERERENMEYGCAiIiIiIiKaYAwMEBEREREREU0wBgaIiIiIiIiIJhgDA0REREREREQTjIEBIiIiIiIiognGwAARERERERHRBGNggIiIiIiIiGiCMTBARERERERENMEYGCAiIiIiIiKaYAwM0PAoGto318aPpvj+SUG7RvtGQ2GMyRrtOVehnl/jxD+7vw7x2o35+gyLcZ2Nn+d4PQraNS7U1f53zB7iYtTXZBznICIiIqJnayyBAfGFfXgv7QpObupQs8M4lnhYDe3zQ8h97CKrdVf+rJ+BGgG/sqKM2bl5bJ3qYz2trNYDAxEjl81gCTUcFZ/m9MOh4GRDQnVnHrNz85idk7H71EkawK48j9m5bVTHW/1oZAYJuvnsIwQ9vJ9F3s+k7u1RgyXGeZ39RvDZRERERDRC/xzt4Vehnu8jgxq25jahjfZkT0bLr5h5U3Bys4bOzgry5SdO1DO1K8+PvdE5ynMW3qeAb9u/dt3OxjAFHXXWWfrN2c+C7CEu9mbwxScIpp9uYzlf6eu4svoRS9+2MWvtp2hov1eA8i8dMSQiIqIJMtoRA9kMlqQWjt4EBQU8vSxCT72s1nGhHuLEp+fG6NVZRwISMnt+PTuKsJ+7576gXeNEPcRF1znNfTbigJTCQY8h8dHL4BAXnt4jWa3b5zXyqQjl4Olpygpp9RttYQ4B769XzV0+rrLLHuLi/BAFYRSEU34KTm40FCJMGfAvh+7r7AivC74jMcxjHqQlYGE9cHvgOV3D58UyNPKp+paBuxxXFlr4YjcizDx0pb13r2NB87mG5rWQFc2nnFehnteh/n/m30Q5npdVPnspSIgjF3C/+PeemudXusvYde8KdSnKCBrv6A/3/4PPGYUrLxGfNc55/ff13p/ePIrnzC345DXonOJx91KQvJkZ6L7vnd6YkCbx2IH3oJUWTQmcyuGuQ9Geb8b59pGRgMTG8++F137okNIfzfStQs3God81nzpZRERERJGNNjDwagaSfgv/1yNjNMHSt21z+PI8ju5TOBAaBVI6BZTMbY043pkvo8aQ4WM0ofsMf16Fer6Gjv37bVy+/uh6oUykF3G5Yw47Rgo5BQCKeDs3j9lSC9Br2DLTNCs/ssenvIkvDQlLKetFehWZ1xKaZSdYIqXXESvPm8Pwgcx7qwwUnOzN4IuVlrljYGMY84DNvM5Z55TssjUSlELuxVdj+04NSH8QzhlHLntrls8xmgtr0V7Wy5tYtsq3izmy5P7YTtOsEEzS8ivO7+eO8WClxzzm1qkONJx97d6+sHMqGtobwJF13J0apjbEhkccmddXRj67ysAgq2uYOv0s9DhWkH9j1KlP6iqQPcSntI6jCEPzm3c6pl6uwg6+AMb9c9+B9v0W+nQMMsQGfwIxSUfn/+3gQZpBAlYDdxXAKmLTOjrfe5zUKp+dGnS07LKwyq+gXSOHY1c9ybka4hIyWeDPOe+9BEjpRXR2jtE069LWqQ7pRaJHgqIIPmcYWa3j3Z3zrNn6tmhcI+uoAc+a0LqZPcTFnvUssermvmtYulh+Rw0hQYqGA+sem5vHbAnIWc8+73F3ahjK7IjsIS72UngozXffKwCAODJWmkotJLLOtQ68By0L61g5m+/eN3uId9PC83ROHE0V/HwzzmdMC2mWvPt6h+0PKYhrktL7/kGgMEUZsztXWNq7RvtmH7Gyt2yJiIiInreRBgbkl139XIIEYpLY2wrsnrUAswEEAGgc463ZLm/eRWxYZDNYksSRBPvISBJir5w/0U//Ml8wK+jcw2yQRciPp9csam/d7t814HXGfFH2mZMu5FOrXdmNQChJJISeXGuURExsiJvz+t/2Fb9wv1gfpCVP2bZwZAVEylVc6uI5dVSLVqO9iHrDXbYDsUaWBAVhXD37PmUwAPmlBF1s1Fv5tPMi5LPcwUPXORXk0sBlzfvyX0H+jdFAbO8t4nLHHRQIqkPaD7N+Z2PoNIAVxUzjXdM4vzSDBFYRu2sBScUY/q/fookmOub1SUDHw4sMZCtoUA4/ZzgjuFD927kmWu0KuhmEsDgBrgryb4R62Phq3mPuY1hl5xqx0ueaHoHnDMlL5rXkavB11fmgZ01Y3Xw1A8nOJ2DcD7ADPCsLfnk3FJJx1yiX9kbcfvbJqUXPcX0McN8bxz0O2UfI5/db97XudQ/qwjOtKDvBk3IHD1IKB369/VGeb76M6+4EKoYUxLWycrrdHQQyEhxcbxXNvN+tIOMErjFDREREv7SRrjGg/dBxkDZeLsc6B1uvYStw+sLgnLUE+lSu4lLZN3o2Xy4C3/6KfpzG8dBeeC2y+tG17oOs1nHwYqinGCIFJxtxNEtWI8hYx+HJKUkkGl/xNrDxpkPXu4MmgXXo+y30JCCnZoC/z4D3ChKQ8HBmBB46ehLIZhDDZ9TxAYVXgHR/Bg0VJO4/IgYFKy/OcHSXREaBGTTocc4nU8TbuXHPvdZRfWZrfzh12q2fIMl4POYetK61GYzc8+R7oOebOYrDG3duHGNWDhi+HzhyrR/B9baQjEM/3Tbr1yaWX2loZzOQUXlm9x4RERGRv9FOJSh+RlWPO0NkXZro6J4hu9k49G/ViC9SZk+pt7fa7KH6NGhvjbenbCgqyJdbSCQ15NK6a5SEl7GYnVkG32+hL6yH9/AOMNc48UIC7jv2gom5dMjIDuUDMrhC1a9BlT3Eu4UW6o9t45WruHTVBfEcxsJ41rB4WV3rujbaD9090iQCY06wMBxa+YCMFDUvq1CzUkBv8CrU83WgtILlYg1TUad+lDt4mE4i9+IW1XITnekkVux8V9C5l7DyfgadWgXNOwkrSdhzmJt3QOx9EjgrQvsBLCVnhOs7KOOczrQWo25KjbPRLx5pXcvsIT6F1c3IzLwo/Y1MABBeN7/fQhen0mQP8W5BN0eRGM8nawqRrNZdaww073QkAuqG9kMHFpLmNgUnfmsMmHPz++mV1mpX7vRGFeEe7M3o5d861Z0RWj2fb0EjusJGDBj7JJKeevvo+6E3cQRK+Gg5IiIioudnxF9XaM65nl73GcosDLm2hvzfH/cxL9NsbNsLU1kv2UW83akB4jzRfr6fu7yJLw1heOuwvgaveIbmQhwJv4aVMKQ4h2P3HPmSmMf+h1372f27Bt0+5xo6p945+EL+N+BZPFKYpuEZKm8NWXctBmiVnzUUWVzc0c6Lty4I28w1GqxzHry46v46uuJnVOEsGGk3lsLOWZSNOfN2PiVUdyJ+TV9gsMSZj/62aKT9z1MJuaiLpklxJNCBhgqq3yQkFpzpAICExALQKRsNvKmFOB5+OPdKYkEyGm7FMzwsxIEhLHy2K7vv3dx0DVtDHr3ipeW/omldq70ZfPFdk8KPNT3GvWCd1ejclbdddSR6MC28bi6XdOF+SOGhtGJPU8oXnefQgbnOgpPPFRyJzxmx3hZlYduasVaDN1nlDh4ASNYUpSi86Y0aWIhyDwbxLPB58PoKf/bxfNv9W3yWR7uPnqLees95kNZDFt0lIiIien7+8cfsv34+dSImg4KTm3XAM3zYGMb/dejTBQYW8jVe/DpGwGr8x8r9rutANEzO4q1c5I6IiIiIHmukawyQQ1bXkNBr2GJj8hdXQf4NG2L0hBTNGAXTOMYsgwJERERENAQMDIya9RKPFo7mOLSUiB6pKGOWAUYiIiIiGiJOJSAiIiIiIiKaYCNefJCIiIiIiIiInjMGBoiIiIiIiIgmGAMDRERERERERBOMgQEiIiIiIiKiCcbAABEREREREdEEY2CAiIiIiIiIaIIxMEBEREREREQ0wRgYICIiIiIiIppgDAwQERERERERTTAGBoiIiIiIiIgmGAMDouwhLm6u0b65Rvv8EPJTnzN7iIsbDYVxpIOIiIiIiIgm0mgDA4rW1dgtaNe4UFeHcXCc3NShZodwKEt5E8tz85gttYZ40Gd4TsD32kTezwpk3FyjrSmuzQUtaNsq1HNhm/faiQGSYV9XIiIiIiIiCsQRA9QHBScbwNHcPGbn5jE7t43q9JrdiJfVOnI4NrfN4wjrdhBIVj9i6du2vW22pCPzXnGOu7eIyx1z284VlvY4UoKIiIiIiGgcnjgw4OlF9hld4NfDbPx+HQlIyOxZ2z0NSbNn+8Tdof04nt5y77Hd6RXS4+oN73+aQkyt+5/Tc1z3SAxvD72VHgUnN9dob8QBKYWDgJ5/Wa379Nw30dHjyFl/q3xARtLRKRvHzaWB6t9Fq7CwsgBIrzOQAWg/dEjpj+bxVqFm49Dvmua51pBofP3/27ujljayPo7jv4XnLUwppaGbsFIweGELir6AmIvaMe+gYBWCN6I3s+712two3khAV9h3EKd6EfMCUhTaXkiEEkhYlCLOi9jnYmaSmTGJSUy03Xw/UNgnMXPOnMnkyfn//+dE2YLXdmpShsY1O8hrBwAAAABoafiBgeDks1bV0oT/xLzyp9uhLPL+dUo7/qQzs6uFpyWtNrLTs42J46Y5pnjiQBU5KvpZ5oSpzWGeh2WrHsyWr5f0ZDkcrFgK9TfQH3+5QOA8l7qe9I4r/eyjl2W/UDLjBRUyuzoLZtkTB7qZ224GDqz3Sl83s/fN/uT0xl+64AT6a+badSDgSNlptxKgXquqnrnSqn/cTExP5AUJMrs6q73V5V5JjvFcSUnKmV4lQFX12rZihTFNZY8kSclnRiNIsGFXtfPso/bPpScvBrHkBAAAAADQyfADA8HJZ2JM++f+E0nFjAsdepNDSdr8dCE9jbkT38KlboyUdvpdb54zFU+M6U03890umC8MOSd/BSb7RX12DMVeSm523FExtyK75au9LH0gONL9pPdC+/6k/dtVc6L98rmMQJZdyqkcnEx/u5IzsXi7kqJLdnY2FIxxuVUI/nKB/euUdlpVamw912FiVtlv0ce9QMZ6SU+WoxUOSeVPq1r4vtZlkAIAAAAAMAg/8B4DXmY78UGyWpfu/yw27EUlzw9aBEeGqFGl8Emzg9rQL5PWa6MZqNg011R0vJL/wqVuNK6lYBXBy+cynCtVJG3MjMs5+eAGGgormtq7aCwzqHx3ZMwtBqoI5hV7Kt38c9SuJwAAAACAAXnEwIC7Xn2hkTX21p1/KUay7m75+uqJE8myV3TZyNi3MOA9Btw18u+b2XHrvdLGhco5yc3WG4HN9ILcSa5fKq/MrhYmWvxZr75dyZlobvznHtfR51J0Mu0GWPbPI2MVrD5oofUeA5JkKNZ4LKmY0WynfK7A9bt9PY1nzdbMF40Xyi59lSN/LBUZWwAAAADAMP3v8Zo+UnY6qePatuq1bfeh8wPF/aUFlu1ukOdzSlqdPgq/vvBe9eWq6suSdKH9++4zEGpzXDu1qnacklanV2TnTK2+KGunVtWS2yEV12cb7W2aa4qdbqteW/Qe8fvj99M/zwsVTxy97qbNTn0trGjqpa36VlX1Lfehyt5YcwO/fFk7c83Jt84PFM+FX3/4rqol/3zOD+4u4W/RpnOypqlcdAy2m89517P1+Hjn6B+3MbYDuJYAAAAAgK788mv8t38fuxMAAAAAAOBx/MB7DAAAAAAAgGEjMAAAAAAAwAgjMAAAAAAAwAgjMAAAAAAAwAgjMAAAAAAAwAgjMAAAAAAAwAgjMAAAAAAAwAgjMAAAAAAAwAgjMAAAAAAAwAgjMAAAAAAAwAgjMAAAAAAAwAgjMAAAAAAAwAgjMAAAAAAAwAj74QMDG3ZV9ZqtjV5fmNnVWa2qs/z8MLoVYem4VlY+8wBN9WVe+dOqjq3Wz27YwXFy/7Zeq6r+YOfUqc0ffWwBAAAA4Oc2/MCAN0Gve/8eZqL+4zHzZdXtNjNzy1b9dFfmsBrPpPVaJe3nWjau2YkLHWaPvP99pOz0mOKJA1WG1Z9bHqNNqf+gg6XjwHs6Grgy8+Xmc5HrGnru1v0QPm67QA4AAAAADNKQAwOWjrdSutkbUzzhTvxu5rZ7mvBsmmOKJ0xt9tp0YUVTiTFNNSa8o2vjXUr6UpTd4jkz/1bJ80+9j+8I27AXpcZ7ekyrJ4YW/Am+ZWvn1Vet+s99mdSOHxDK7OqPwHPu/fDeCyrMK38aPO6BtEylBAAAAIDhG2pgwJ10HuhNI1Od0/6Jo+SMN1GybNVty1suEMmSBisNWmXTLTuUeQ1mX1sez7NhV3Wc73Rsr6y9nwx+yr6dCfbOY2fOkCYWI897GeLlcclIacfvU2AieXa6q41AlvlWxYU3Du2DLdGKgPC5pl9Jxb9blhK0dlcFSOS6NPvVOct+p1Zj651DcxnC7esWfC8Elym4jy8qKUPprTZ9ajO2le+Oksv+31pamjN088+R25fMuCqFFS8IM6/0K0OamHH/tnCpGyOlP7z+m/m3SjpXbpWE9V7pYFWHNaOkDL1OjWaFDQAAAICHM9TAQPKZIed7uDjc/seRnsaak7eJRc1+8rKkexdKZryJnZfxj+9d3D5wZldny4aK637G1pHODxrVAW6VwZqKTpt+zU3q87r3N0ppaSAl24bSr67cbPB6SfIzwd55+H30s8xuX3N645+jU2pmks3ARN1IaenZR/fx4HG7ZObf6snJX60rAqz3Sl9/VLbQ5cEyuzrb8seuRQWIZaseuC7xxFgoKPQm0SbLfqc2Y6t55U+39frLWuO4+9epUIZ+4WlgXBOzjXN13yMHqsgJ9Le7yhQ7O6v4nrRUq6pee6vLdf88k4oZji6/SW4gZFuxwoEqMhTL+GOwps+vtlWvVbXz7KPi024QwXxhSNeX7n/ny6pnrrR/4sh4luxyjAAAAACgP4+/+aATyJLmzMZEqWfBYMNdTZ588CaIR7q8lp68CE5QvfXuPffDUTHnvaZwqZvGZPC+LrTvBwoKRX12IsfNmZEJeJClpTnpc6l1tUA+M67Kpx6qBV4+l3EeDCTkVD5vjt/GzHhgbFu0F8js78wZPUx6241tUjEjXA2x+emi+V7wMvQ7/W5e2GZszXxZ9WVpPzGm+J6j9FakquDlrs5CAQOfGyxwAxlrKj5dbFnh4AcMHna/BQAAAACjaqiBgcr32xnPYGa0b94E2S8B35lztN9vQOG/zJpR8rxNRUDHDQkHz8z/rrSa2fvVkzblHAPlVyl8kKxBbejnLg+o7HnVBTlTq43lMRVdOobSy8916FcnZGJ6IkeXBbnXwynpz+yR3ADUgSrGpNIZr5JmYlEL39caFSOtKm4AAAAAYNCGGhiwS1/lTLxtZmszu/pjrsc17a1Y75W+bpbl97U5YVv32GOgg1tLKIK+XckxnuvO/Ln1Xml9VTE40W+7x8C88hmj7VhvvEvpptBjMOXb1a3ruTDhNCoSNj9dyGiz1CH5LBgQctfl319Fl854YEmCWwXh3Npo0a0CWT1xItUh7kQ+9rLN4Tvs3xA8TvKZfy5HKn5xpMBmjhvvUjKCmzsGr3Mmpif+f+c+qaLmWEbHFgAAAACG5X9DPXphRVMvbdW3qqpvuQ9V9sa6W9Nu2e6mfJKkce3UqtpxSlqdXpGd+0vF023Va4uBF1xoP2Fq01t3nvbnastV1ZfddluX2z+Q3F8qZrbd85DknKw1fzGhsKLDd1Ut1apakty9CBr7DIw3H9eF9hNdTua9IMJqy2qBXS1MXOiwZZTC0nFtsTF5TW5VVd9yVFyfVfau65kztfqirJ1Gf5vjvvl3SQtbi941c1Q8uVDyWTdtdjrJI2Wnkzqubate23YfOj9Q3B/X0HtI7j4O00fh1xfeq+69R5rvoR7bdEpanXavl52dVdLb2LDRH/9athkf9xxzerMe01ljbLs5fwAAAAC4v19+jf/272N3omeWrXrmyg0SSApuQvef+nnCzK7Otp7rsOeKCHc8YoXWwZANu6qF7/+xsQIAAAAA9GW4FQNDYr4wJF0FHkkqZsj7yTi4We32Y7Fpjg1w6QUAAAAA4Gf2UwYG7OwHpU+bZfmSV5r/mEsFAAAAAAD4Cf2cSwkAAAAAAMBADPVXCQAAAAAAwI+NwAAAAAAAACOMwAAAAAAAACOMwAAAAAAAACOMwAAAAAAAACOMwAAAAAAAACOMwAAAAAAAACOMwAAAAAAAACOMwAAAAAAAACOMwAAAAAAAACPsxw8MZHZ1VquqXquqXisrn3nsDvVuw67qLD//2N1oq2P/LFv1012Zgb+te9fj2Hq4/rVr80cf28fQ35jMK39aDV3rn1pmV2c1WxuP3Y8umfmy6vYD3VCtDGu8gp/frd5bjed/zs92AACA/4ohBwYsHdeak7reJ5Pzylsp3eyNKZ4YUzwxq2xhWH19RJHJd+RJHQ/1S7Ol2YkLHWaPWj67MTOuSmFFtve/N80xxRNrKjrD6s9tj9GmP1HuPfjhTbDbBbM6BbosO3SvRCeKwQBJ+0lk5+v5cPodv7t0dz+YqUnp5C9tDrr5UFdu37cPE6ga1tgOoc3CiqYSY4rvXXR+fv2rXm899DkNWOP+bRFg6RjgDv//ZHQMzHy5fWAFAABgQB6gYsBRcd2b2O9dKLncS1YqqZjh6PLbELs34sz8WyXPP7WeQGV2tTBxoXLuoXv18zLzv+v1lzUvkDWm+J6j9Dv/m76l461Jffbvh/Wver3l3w+Wjpelff91iTUVn75tTCDMfFlLOmgcd1+LLSegHa9nR0fKTo8pPt0MAv28LC3NSZ9Ljx0cQdcKK/rzxFFy5ueMDJj5suqZK622DIB0uu/nlT9dlBrB7wNpuRk42LCr2nn2UasnDxoVBQAAI+hhlxJ8u5IjQ7FAtiSUBW1kRPwMyqKSMpTeapElDWVgwlmWDbuqYyuYhQkHI1q36R3zdFcbfoamdjv752Zv+sngp5v9iZ7n8rhkpLQTyQa7/YyMQS0wkazZ2ghmmW9lkb3jt80uzyv9Sir+3Xrm33vWNZItj2a4ItcsOLaha9JzZUmrsW113EhQKpKh9/vjXuNtpQ0puXxHli8ytvY/joy5372/nVc+My7ne8U77lslzz82ql7M1KQMjWvWkqSKLp1xLfnHs94rbTi6LLhtLc0Fr5Ol2QnJeJWOZBBbX89OY2sG3uu330PRip/m+N26D7xre2x1N35t78Fb/Q1PktrfD8Fuz4TGuXOb7n2U98ah+bnhHbeLz4R27vocCo79zpzRvq+Ba3bfsb1LLNCnrtr0xidve49Z3j3eR3Y7+cyIPBJ+/zXG/Y42zXxZZ3kr8FkUeZ82Xtvis6bDZ1Qndna2bVCt431vvVdaJe03bu0ZJWXodcptd9McU9wkMgsAAIbvQQMDZmpShvNVRf8LUr6she/N7Orql0n9kZ+XlNMbL3tSCVYcmM2J0fHWcx0mglmW8Jfu5PKMyn529XxcC4FJX+s2PUZKC/rgZXZK0tz7gay7NeYmdbnuZYKV0pKl5nnuXUhOSauJ8Hm6JfSRMUiYgYn6uJYyV97rDlSZeNtbwMJ6r/T17QmU96SW5pweStLnlT/dDmXL969T2vEnmpldnW0Fl4WMaSpwbPdcxxrj/iTT/cSi9di6E6Rgln31xNBSY8Iyr3zGCIxrsz92draxdKHS6zKWnNkoi67XthUrNI+bfGY0ggR+JnD/XHryYl5+xn5fi+6kJHOlVf9aZ2J6Ii9IkNnVWe2tLvdKcoznSgbbbnM9O42te67Nip7IyXj3YXP8/PvIzs5q9URKW7syA0t+3uTuHr+O92BmVwtPA/dC4HV33w+B6xoJjnS+78eV9rKyyeW3ulw/UCUYwDRSWnr2sa/PBPd4rT+Hdl59bZxnNCPc7prda2zv5I5Do7qryzZlpPT6+5r2zw2ll5/rcL3Fe7MDP0CyNHGh/cZn/Lzyp82xiyfW9PnV783PtzvaNOYWFSv4Y6tA1Y772rT/uRA4T/czKpDZTxzoZm7bCxxElwjdtaSnqdN9b74wpOtL2WpWHeyfODKedTt6AAAAg/EAgYFmdm/n1VetNrIq80q/MmTMbYeyZl19IbJmlNS4lhpf0NwsYrASwQlkujdNf3LWTZuB9dmFFU1FJh7ul+Te9zpwTj54rznS5bU/GbwvR8WcP545lc8NxV4Gn/cmdi0zTm42u/KpTbVAzyXpScWM8Nr2zU8X0tOYm8VLTco4P9CbNsmvUOZ6KyWjh4lF67GdV+ypE5og2qWvgcnDkS6v3fdmf2vC24ytZavuTy7WS3qyHD1+UvnTqjt5C73WnXj4gYz965R2WlU4bD3XYWJW2VvLa9pfz/7HNjwZit4rdnbW66cbEGp3baPH7HgPFi51Y6S00+++GtZ7pdUMPnbVpgLvkxaVBlJgwloo6rMT/qzppPnedO8Ht023P8G9O6L6u2b3+EyVFDrPb1c9TO6b973T574OzslaOMiTSeu1EawM2VbaCH6QY2DXAAANcElEQVS+3dFm4LPGLn2V430O+a9teZ4vn8sIXf+cypHAXTwR+dd1Nr/dfe/yAwbx6RVVujwiAADAID3gHgMHqhiBDHLouT6+aJ0fRL6kdTtZv0eb/yWZtF4HS1hDOi8xGHxfdvXHnJrXZb2kh1hR62dl/9TvXWf/7rIxM96cDBZWNLV30Sj5r3x3GplMP1AVeyrd/HPkTYSaE5ZNc01Fxys3LlzqplEd4k2eXj6X4Vw1JxHtruc9xtbM/660Sm2z2j7H6TXD2eke9KsUPkhW78tKoptldtfmYN38c8+9De51P/x8n292djZUPdQQrKLy/nUXfBqG/isGOt339j+ONLEYChgEKwwAAAAeygMuJchp/8SRJma8LKiXsbX62Gn525WcicU+drC+R5ue/vcY6KBjdq6iSydaCdBCy40C2+8xsPEupZt2GcuOSwzacdfILzSy4976+i9F2fKydu2WOrx8LsMvlff6Fl1t3DvvWgdKiDfepWS0qIKws7Pu5CuUVbyrsqP92AYnyeaL5pnYpa9yFLhG1nuljeA1C2aik4o1XupmLv2xjI6tf24tr+c9xjb5rFnm7C4tCb/S3xBxavqDik+j92O78ev2HnQztKsnTuQYHe4HbxnC7WDX/e/7hmBFwrcrOcak0oH16wsT7TZLDVZ0uGPT2GjPssN7DNx5ze4ztv4Et9efJhxkpVPYht3iPvIqR7pfBtHh+O9SUuBeaevbVfgzyrue7iaW/VcMdLzvc59UkdPcKDPUJgAAwMN50D0G7OwHFQOTx03TXRO+E8jAdDXZ9zKxzY2wut/squ82h6mwosPzwNKI0JfkI2ULwXMNfqEPlNpuTerzenS9dRsdf22g0xIDf1IR3ojMHb8jZafdNbmN0t/rg2YmsLCiqT0nUBocKLHP/aWi0zz/he+lQDltpzY72zTXVHy62Ghv6WlJq8F9KoKZv61Jfc6FJ9abf5ekxvl0FwyKtrkz52jfXz5TWNHUnprXeVna9ysAbo3Pop6cNMvzN801fX7VHNvXX9aaY9vpenYc2zvO5e+SnAn/XN7q8qS5B4GZL7vnZroT3Wzu9rKJduPX8R6MbAi58+qr/gxlk9vfD50mgPe778fD1yx0PQPXbCulm71w5ZIxF75mzet5oMpEYD+J4P4OXVyzvsb2nvq5HxrXM7jBalef1Tm9WQ+212MwYyJw3+ugdUVCVBfXs63gefrvF/88O933yulNY08S/3M8vGdEY3NKf/wGUNkEAAAQ9cuv8d/+fexOoB+Wjmtvdbne+34HG7a71rXll2XLdicq/4mfrRsNHa9nD8x82V3n/IOXnreU2dXZ1nMd3tqM8PGOO6jrgt781O9jAACAR/K/x+4AHt6mOdZ+kpMzFef79E+l4/XsmrtxnfPlJ13bXFjRVI8BMgAAAAAuAgPAyHJ/YjLtL2A/P1Cc7DYAAAAwclhKAAAAAADACHvQzQcBAAAAAMCPhcAAAAAAAAAjjMAAAAAAAAAjjMAAAAAAAAAjjMAAAAAAAAAjjMAAAAAAAAAjjMAAAAAAAAAjjMAAAAAAAAAjjMAAAAAAAAAjjMAAAAAAAAAjjMDAQFg6rpWVzzx2PwAAAAAA6M3wAwOZXZ3Vqqr7/053ZQ65yQ070F6tqnrN1ka3L7bsB+mja17500hfbWtgRzfz5YEeb7gIrgAAAADAY/jfcA9v6XhrUp/Xx5QtDLelKOdkTVPZo4dttE+VvTG9yUluoGBbdVuKm7nH7hYAAAAAYAQMt2IgE9OTO/4klN2PZuoj1QZn+fmBdKt1m5aOa1XVl8clI6Wdlhn8SIY/2t+Ufc++HimbK8mZmGlWOETG4DjYnWg1ht9X7/GdOUOaWGzTJ+9ceq6O8MYpeszMrs5Od5W3q6rXyspbXt+845v5ss7yVmD8mtUB7vVYVFKG0lvhKg8zX4700e33oN4LAAAAADDqhhsYKKzozxN5k73b5fxmvqyF72uKJ8YUT4xp9cuk/ghONLdSutkbazzfSwWAMbfdcgLfvs2c3iTGFN+7kJySVr3nm5l7N5ufvj5ovDY+vSK72aLSr67c162XpLn33S9fCI3ZpW5kKJaR3IqL5zr020scSMvNcdx4Fx6fRl8LK5pKjGn1xJHOD/oav9bmlT99q8t1v801fX71e7P830jp9fc17Z8bSi8/1+F6SY7xXEn/6blFxQreuJ9I6XduIGPTdM+tIkfFxrFNbUqysx9VMSaV9tvIpPXauNDhT1INAgAAAAA/uqHvMWBnZ92J3p60FJqkzyv9yghN4HfmDBnP3GmkmZqUcX7gldjfZubLobX5x5Gl9M7JWosJfOc2O/ImpPttS/wdFXNeO6HJvRTNsnedpbdmlNS4O261ZlbdP27lu6Pkcr/7EhwpOx0Nbtwhk9ZrI5jV31baMBR76f9Bc8LunPylzejrA9fTLn2V8zTWxTjktH8ivU65ASMzNSm1OjYAAAAAoC9D3mMgIGcqnnOz7kuWZOckyVFxfbav/Qfs7Gz3E9qQ/tvsX05vEl3uGZCJ6YkclQuSLLkZ/zbBiMYYWO4SBjklrfYy0e9HuzaGuGmgXfqqP7bcCozYK+lzjmoBAAAAABiUB/65wqRihv/fR7q8NpS2WmfP7dJXORNvB7xLfec2JUnfrkLl7w2Foj4741oY6tp2S8dbqWZG/NuVnInFW9UQt+RMtxQ/0m/7H0dqm5XvY4+BwqVujFRzucc9bLxLSV+KgQBDRZdOsPog2O6KDs/HNWu/V/r644NvZAkAAAAA/2XDDQxYdqjcv15blBo78Eub5pqKCmz0F1wSUFjR1J4TKFsfzIZzHdv02j08D5TvN8r0j5SdPtBNm70L7iO5HB6fxl4AhRVN7V0Eng8vxQj/1OGitGeGS+xzf4XO9f7jl9Ob9ZIUHINefgoysBHikg4iex4cKVsInmv4uJufLpScGFflE7/WAAAAAACD9Muv8d/+fexO4L/PzJe18+xj/z/DaNmqL0v7CZP9BQAAAABggB54KQHQj3nlM+OtNzQEAAAAANzLw20+CPRhw65qaULuJoz8RCEAAAAADBxLCQAAAAAAGGEsJQAAAAAAYIQRGAAAAAAAYIQRGAAAAAAAYIQRGAAAAAAAYIQRGAAAAAAAYIQRGAAAAAAAYIQRGAAAAAAAYIQRGAAAAAAAYIQRGAAAAAAAYIQRGAAAAAAAYIQRGBgIS8e1svKZUe8DAAAAAOBnM/zAQGZXZ7Wq6v6/012ZQ25yww60V6uqXrO10e2LLftB+uiaV/60qrptNR5x+95DfwEAAAAAuIf/Dffwlo63JvV5fUzZwnBbinJO1jSVPXrYRvtyoYpmtCFpU5ZmdaHKY3cJAAAAADAyhlsxkInpyR1/EsruRzP1kWqDs/z8QLrVuk1Lx7Wq6svjkpHSjv98IJvfyPC362/K7rGvScUMqfxJmrUkWTPSp0/hP7HsUPXDsRV60u1zrap6bVHJrs4zci59VEeEKzKC1Q0dxiezq7PTXW3ky63HKHKeg7rWAAAAAIDOhhsYKKzozxMpvdW6PN7Ml7XwfU3xxJjiiTGtfpnUH/6EMLOrs62UbvbGGs/3UgFgzG23nKC2bzOnN4kxxfcuJKekVe/5uJnzXjmv/Om20tcHjdfGp1dkN1tU+tWV+7r1kjT3vvvlALlP0oyljRmpnKvo0jEUy8idLC9L+3576yU9Wfb3EbB0XFuUGuNzEKo06Di297BhV7X0NDA+CVObgfF5/aXZ5v51SjvBwIqR0oI+NM6lOUbzymcMFdf7u9YAAAAAgP4NfY8BOzvrTvb2pKXQJH1e6VdGaAK/M2fIeObmvc3UpIzzA73JtT6uGcg8386ku0sJbk/gO7fZUSat18aF9s02HZKjYs5rp3CpG3mTe0nhzH6rLH1O+9/fauH7X94k2zvHF4ack8BjhaI+O4ZiLyVZM0o6Je237E4353mk7HQ0uHEXS7MTgfMMSSpmXOgwMKHf/HQhPY0FzjXwfGFFU42gwpEurw2lt6gUAAAAAICHNuQ9BgJypuI5N6u8ZEl2TpIcFddn+9p/wM7O9jChDeq/zf7l9CbRYgafiemJc6WKguczqInxY5xn/zbNMW3KD/hsS+cHgWoNAAAAAMCwPPDPFbpr6l1elthqvcbdLn2VM/F2wD+/17lNSdK3KznG81vr9d1s/bgWHjCjbf/jyAguSbDeK21cqJzz+zmpdEZyy/iDewx0cZ597TGQU/ncUPqd1eK5ii5D4zOvfGZczpdiTwEcOzur+HpJTqjSAAAAAAAwLMMNDEQ2lKt7a+L95QGb5pqKCmz0F1wSUFjR1J7j7U8wuA3pOrbptXt4Pu4uewhtPnik7PSBbtrsXTBY3nKBnKnVE6PZl2VDxXWv/D60f8O2YoU1FZ0ezrNPm+aaik8XW2w+GB0fdz+G7vYKiCy12JrU55bLFQAAAAAAg/bLr/Hf/n3sTgAAAAAAgMfxwEsJAAAAAADAj4TAAAAAAAAAI4zAAAAAAAAAI4zAAAAAAAAAI4zAAAAAAAAAI4zAAAAAAAAAI4zAAAAAAAAAI4zAAAAAAAAAI4zAAAAAAAAAI+z/gKsJwy368lkAAAAASUVORK5CYII=;" vertex="1" parent="1">
                    <mxGeometry x="190" y="-270" width="790" height="230.1" as="geometry"/>
                </mxCell>
                <mxCell id="37" value="" style="shape=image;verticalLabelPosition=bottom;labelBackgroundColor=default;verticalAlign=top;aspect=fixed;imageAspect=0;image=data:image/png,iVBORw0KGgoAAAANSUhEUgAAAhQAAAElCAYAAAC8tHtwAAAgAElEQVR4nO3df3CU5b3//yeOmR5zaAyHLNLALiEmYEB0zFJBUucrx5GNaAypncl80KMwNJkDjmix1ZieEkM7adSCFA9mhpRPkCN8h5lvhRhEFo/Fjg0m6saDECkEA2RNpGxSQmRQJuccvn/ce9/ZXwlJlrAbfD1mWnPf1/3j2k3I/dr3dd13xmRkZFziCpswYQJnzpy50oe9puk9Gzq9Z0On92x49L4Nnd6zoRvt79l1se6AiIiIjH5j7n9w0RWvUIiIiMh3y/WXLhl54tKlS3T+rT3G3REREZHR6LozX3kBI1CIiIiIDMf1xn8uKVBcAefOncPr9XLx4sVYd2VIvve972G327nxxhtj3RURERmlrgMwsoQCRbRGY5gAuHjxIl6vN9bdEBGRUey6MWPGGIlCeSJqozFMmEZz30VEJPas20aVJ0RERGS4jCEP+v5fREREZKj0YCsRERGJmgKFiIiIRE2BQkRERKKmQCEiIiJRU6AQiUJKSgpLly4lJSUl1l0REYmp62PdgeFKSUkhLy+Puro6Ojs7KSwsxG63h233zTffsGPHDjo7OwHIzMxkzpw5vPnmm1y4cCFs+WorLi7mySefZNWqVbz77ruD3ufBBx/koYcespb/5V/+hV27dvGv//qvvPzyy2zatGnE+pyZmcnChQtJSEiw1p0+fZqEhATGjx8fcZ/9+/fT09NjvddZWVlkZGSwY8cOMjMzmT9/Pm+++ab1fYqlwsJCjh8/jsfjuey2nZ2ddHR0cO+997Jjx46r0Ls+of8GXC4XnZ2deDweXC6X9f5Gek8DX2NiYiKFhYVh37v9+/cHvQfm9/306dN0d3cza9assON6vd5+34dY/VvLzMxk1qxZvPnmm2Ftoe/hUA3lZ0XkWjdqA0Wowf4yP3v2LAArVqywLnKxcvvtt1NcXMxNN93Etm3bgtr27NnDkiVLgrbdvHkzDofDWnfmzBkuXrzIW2+9BcB//ud/8tlnn7Fu3TqAEQsVLS0t/P73vweMX8g//vGPaWxspKWlBej/wpGZmRnxeNnZ2SQlJQW9Xgi/oF0NZqXhyJEjEdtdLlfECynAz3/+86DlQ4cO4Xa7r2wHA0yZMoULFy5YF8Lk5GTra7fbjcfjobCwkIaGhgHfxwsXLlBTUxO0rrCwMOhru93ON998w7Zt26zwEilw9PfegPFzk52dzd133z2i70uk86anp1NYWDjo3xMpKSkUFhZyww03WOti8fN4NZj/hvfv32/9GzZlZmayYMEC9u3bF9YmEmrYgWLatGmkpqby/vvvR2y/55576Ojo4NixY8PuXH+eeOIJ6x/6kiVLBvxUFMjlcpGcnMwbb7yB0+nktttu4+OPP77i/RsMMyDU1dVRXl5urS8rK+ORRx4JCxgHDx5k9uzZQHiF4r777rMu1u++++6Av9SvFKfTydy5cwHCftkkJSXh8/kG9SnU6XSSmJjI6dOn8fl8V+1C43Q6mT9/PgBdXV18/PHH3HvvvVbVZcWKFda2XV1d7Nixw3o9Ix0UBisjI4Pjx48DkJiYCMCpU6es9s7OTjZu3Ggth1Yi7HY78+fPv+zr2bFjh/VJfij6qxra7fawn9GRfk/dbjc//vGPyczMHPSF8cKFC1aFJzBgxVJooB3p962lpUVBQgZt2IHi+9//Pr/73e8oLy+nrq4uqC0vL4+ysjJ+/vOfj0ig2Lhx47DK5O3t7WRkZPDUU0+xZ88eampq+v3UPJLMMHH48OGgMFFcXMyjjz7Kyy+/HDb8sWXLFhYuXBi07syZM0HLgftcvHgx4i/zK8X8pHbbbbfR3m782fvQX3bm1/0FvoSEBLKysvjLX/5Ce3s7hYWF/PznP79qnwS9Xi9NTU3MmTPHWg4ti5vVloGElr0LCwvp7u4e0V/0iYmJJCYmMn/+fCsYAWFVHlNvb6/1Mx+pz/0J/aS+ZMkSurq68Pl8YecGwv4mTDx9qo805DEUP/jBD3jqqaeChvrACEg/+tGPrKrdSDDDIMBrr71mhdsHH3yQlJSUuBgqFBl2oPB4PJSXl1NWVgZghQozTJSXl/dbvbgS0tPTSUpKorCwkObmZuvTeyRmij98+DCHDx/G6XTyox/9iPb2dpKSksJ+QYy0l19+mY6ODubNmxcWCgB+85vf8Jvf/AYwwlN5ebl1obj99tv593//d/7jP/7DGtK47777+O1vf8vzzz8/6HkY0Qj8dA/Gp3nzIhP6icnpdJKRkQEEf9rxeDxhF5qampqgX5yxuBAFvrZvvvmGhoaGiNsFXpC7u7vJyMiw5iMkJiZalYOREjpM4XQ6SUlJGXaIiVRNOH78uFXliBTgd+/ePexjBxrpT9lLly5l/PjxfPPNN7jdblwuV9BQBgQHsa6uroj/jr766quw13y15lDcfffdVsUkUGB/AgO9GSADqwuB34fQuWWBCgsLSUlJYceOHYwbNy7o+x44f2qgY8h3U1RzKMwQYYYK8+tIVYsrKTExkYSEBLq6ugDjz2//7ne/s9pCx/RDRbqYXU0LFizgvvvu4xe/+AW/+MUvOHjwYMTt9u3bZ31dXFzMr371K773ve8BwaFj//79/P3vfweMcLFu3TpeffXVEZtDYb5/Zlg4fvw4GRkZ9Pb2Asb3IC8vj/feey9s30gTOkN5vd6Yfn+8Xi/vvffegCX+wBDR2dlJamoqiYmJTJo0iYSEhKChh6shIyMj4lAC9FWIQt97c8ijq6uL3t7eoGpCaIk/PT2dG264gXvvvZf6+nry8/PDLsoQ+UK2Y8cOEhMT+ed//mf+9Kc/ceHCBavycfz48REfPqqpqbGGbLq7u4OGgfqblJmSkkJiYmJQ0Dh+/HhMJmEmJiaSmprKZ5991u825r/FLVu2WBf++fPnc/bsWWvOS2JiolXdcDqd5OXlhQUUc7uamhouXLjAuHHjrLaUlBTmz59vfX8DjxGLCe0Sf6KelBkaKkY6TABMmjTJ+vqDDz6wxuEDf6iTkpIoLi62JhoNNJkOgsfMYeDZ6iPh9ttv5+WXX4443AF9EyyffPJJ1qxZw8qVK4OqFG+99RZTp05l3rx5eDyeEb3LI1RKSgrd3d2D3r6rq6vfmf6BFY141traypw5c0hMTKSnp4eEhAQSExNJSkri3LlzV/VTmzls99e//tW6YENfmdyslgROpjXfZ/NnPDRABP7sJyYmkpyczH//93+TkpLCzJkzrYvyUO6S+OqrrygqKuKbb74hISEh7j/dRppDYQbNU6dOXdW+9/b29juBPDExkdtuu42GhgarT+YE2ClTpgDGBN79+/dbPxtHjhwhKyuLSZMmWRPVp0+fzpQpU/oNCE6nk3Pnzllh8dSpU9x2221hv3vlu2tU3uUxa9YsTp06hc1mo7u7mx07dli/IM0w09PTw6lTp0hPT6elpQW32x3xk5A5UfNq3/I3HD/5yU+46aabrF/mZpVi48aN/P3vf+fee+9lxowZrFq16qr2y3xfXS4X0De+PxihF7bRoLOz05o3EvgLedy4cUETJa+W7Oxs65xZWVnWp+esrCwg+I6VwKrSQAKrTFOmTKG3t5cLFy7w7rvvkpOTM6hx+97eXn7wgx+E3f1iVkgCP/3H01yLgXR2dvLZZ59d9duEExISSEpK6rc9UuDo7u4mJSWFU6dO0dvba/2cghGWent7SUpK4uzZsyQkJHDLLbewf//+Ab+vdrs96PvZ29vLuHHj4joYytUTdaAInDMBhM2pGAl///vfrXQMxqckp9PJ/v37g7ZrbW1l/vz5/f7yy8zM5JZbbiEhIQGXyxXTmfsTJkzgn/7pnwbcZsGCBUDkeRRlZWU88cQTbNy48arMoxjIuHHjrAvQ5aSkpGC323E6nXFzQbHb7SxZsoRvvvkmrO0f//EfaW1tDfqF3N7eTm9vL5MmTSIxMfGqDndkZmaSkJDAkSNHuHDhgvVJuqenh7lz57Jv376w74NZTTIvDqETKaEvFN5www1kZWVx5MgRbrvtNr799lvq6urCnlthhgPzjhjzGIcOHQoa5w8dkjRvWYzl7dtDdbWHTC9cuEBHR4c1xBZJpMCRnJxsBceEhISgC785bGy+7729vTQ3NzN37lx6enr6HS6OlzucJD5FFSgCw0RggBjpUPH+++8HPZkwsBQX+Mk4sOwXGihcLhe33HKLNR5YWFho3f1xNW6Tevfdd4Mu/I888ggOh4Nt27bxX//1XyxYsMAKEJHccMMNQRWKnJwcLl68yFdffWUFjrvvvnvEX0cgt9sddGuiOb4a+EswcGJmZmYmNpuN06dPW+2B8zOimWQ4GHa7Hbvdbs3FMQUOdwXeBZSSksKNN95ofdILnEdRU1OD0+kMei7ESEtMTGTOnDk0NjZaoWHHjh0UFhYyceLEiD/LKSkpZGRkcPHixaDXaU5GDZxs6/V66erq4ssvvwwK8IETQgeag9Db22tVcvpz7733curUqat6a+Jgf7YizaGIFfOZIqHP0njwwQdpaGigo6ODuXPnWkMxmZmZ3HjjjdbyuXPnrInoFy5cICsri4SEBNrb263fme3t7Xz99dcsXLgw4s9Oa2srCxYsoLW1VbeSSkTDDhROpzNimAicU/H111+P6J0eYIwNTpkyJeiWsMDynjlh0Lyomb84u7q6qK6uDvpFHPgkwKtVzjQrC21tbdx3330cPHiQLVu2cObMGbq7u3niiSd49913wyZlXrx4kX/7t39j06ZN1uTNP/zhD/zkJz/hxIkTET9djzTz/fvrX/9KTU0NLpcrYkgzJ+SZY9SRJj9ejVvhQm8bhYE/fYYGhtAL0tUe7sjLy8Pn81lB2gxyhw4doqmpyfpemP1MSUlhypQpnDt3jtmzZwdVJgZ63aEBfjCcTifd3d2XrVJdzWEDMyAEVlEGEk/Poejs7KSmpsa6tdpkDlGY32MzAIXegWEGTXOuWOCzVQI/hHk8HlJSUsjPzw978F9LSwtJSUnk5+db6672XDOJb2OcTuel8RNS+d///R/Odv5t0DvG8sFWEP7JKHAGe+iDiKAvSAzmH8BwnyMw2DJo4DMlzGpEJIHDGIHPqwgc8vjJT35CR0eH9YvEPHbokzYHw+l0Dmq7wPf60KFDfPDBBxQWFpKYmBg20c4saR84cIAf/vCH1u17gduF3oYKA9/WNhJCH88c+Bq9Xi91dXVWqT49PX1QDw8byV+25lwIMzgAET9VmpORv/nmGz788EPS0tJ48803Iz4JMlTgHRuB/96cTueAr7+jo4P/+Z//4b333gt65P1A/z5HWn/PrRnOo7cDJ3jr1kmRPsMOFBIuXuYADNdgA4WIiEgo/bVRERERiZoChYiIiERNgUJERESipkAhIiIiUVOgEBERkahdZ5s4OdZ9EBERkVHuulOtI/OciO8i86FTo9Fo7ruIiMTe9QBj6Pt/GZ7TU/O4eN8bse7GsF289L+c+6913Nj5X7HuioiIjEKaQyGA4qSIiETH+FseY8YwRleUqEw8UcfEEyP3F1ZFRETi2fWXLl0CYMyYMXR1dfO/ly4Z4eISXIpt30RERGSUuH7MmDGMGTMGLo2BMXDdmOu4dOkSjFEZXERERAbHmkMx5rox+IsVjBmDhkBERERk0K7v+9JfqfB/DTBmjAY9RERE5PKM20bHjMGcS2H+V0RERGSwrAqFWZ0Yo7EOERERGSI9h0JERESipkAhIiIiUVOgEBERkagpUIiIiEjUFChEREQkatdffpOrw1HwHMt/CJ9sepE/nhxgw7RFlBY7Ofv2r6iqN1faefi5YmbjoerFXbRZG+ewvGImh0ububUiF8fJvTy/z0ZpIbzx4i6mFP+ahWle9pRu4oP+ztFufP39/vpzci/Pb6rvrzXmXC/uYSW/54Hn3P1ssZKtjY8wbRDH6np/tXGc+yt5+0nYsLAE92D279pP2cIS+utBbK1ka+NsPpnzGBv62cL14h7K7xk/iGMdZfsAx7l6XFTueQpeXUjJOwFrX9xD+azPwr4XkV7fsff3M/6e+YS96rj+XopILMUkUBjhYWzEttnFv2Z20JrzEUOG44HneLjdWO8oWMzsG4FzE5iSBm3mtjkzcWBnXMEZzvpX3b3Ayfdv9DKFHG5NA86d4dQg+vz1x5uo2OkNWJPD8opcHIPY9+pwUblnDZGve2toaFwTss68+G3gsTkhl8Ant/L25G39h5B3Sthwzx7K91TCwg6CL6QuKvc8QsfCeLiwhnhyKw2PTo/YNK2xkcUh68wA5X5uYcgFNI5fI8CTj3DPmb3MfQdWbmlkcVZg43zKGxspB6CL919YSIn5+i73fb+/kq337FeYEJGIxmRlZV1Ku9n4JXuk+fCgdvqHf/gHJkyc2G/7ue5uznV3D6kjl69QDOECHlA1uLv4OW5tPgoPOHGc9LCH6dza/CJVFPPbB+whHfdQ9ZcJLA9Y//VJL6TZR2WFwvXiHlbOAs500vW3bTwW8UIx+AoFR7Yxd0nfJXTllkZme7bBo7P5ZM4nzI54HP9F652whjiwkq17chk/vpOuI/DJksgBYfAViv5e60q2NubSEdoWVOmJdJ7A40WuOkTobVDYMb5Hc3js1UjbBR8vdFvXi3t45MuF/S6LiAQaVoXiwfwfM+2WW/ptP/bXv/L/7dg+wBH8QxQ3hreEVijCKgMBF/DwEBIcOhwFz7EwbSykOY0VaU4WAoxbxMNn7YB/uCOnmN8+MI5Pduyi7SQ83x465GHv64e57eWGZmLKqFbMOrSaDYeeYiXb2MZTNOyZH6FcHVyhuPwQScCFZ8kcYCVbHzVbQkv+/otWPHpyKw2PwvY5e5ndOJtPlnzC7MZGtr4RfvENrlBcfogkGtawktnHJytxvTOEIYYnH2HWoW2U3F/J2y+k0nUEpj3aSMOjkTbu4n3zy/srcWUdxb2kr3X6TdBhbeBi/qzAZRGRYMMKFH87/dWAgeJvp7+6zBG8/PHFX/HHgDWDn0ORy28rcoNWhQ+TGNp2vsjzOwNChhlG0hZRWhxw7gnjLtNf+P4Pi/ntDyOdM/KQTKwYJe4u3n9hDg+8A64XjQu6+7mFuO+v5O3GRlYGXLTCS+IQeYjE78g25i7ZxtbGRrYSevGdzuKwoYOAi1Y8uL+St1+Yz/gj25g7ZwOwkq2AGaxWbmmkoTEgGJnbhxwm0hCJ4QpWZF79hGOPzmY6DDpQrHROZ3zWGhruMfrRUdgIEUJS2H6FxnsSGAZTJ3TSYb2O6aTyGdvistIkIvFgWIHigz/v57Y77uDGG5PD2s6d6+aDP+8fYO/+qxMQORwY1QH/whAqFObkSj720PZDJ46wMDKOCWkYcyjOHeXjsHkav6b0pFEdaTMngcZrhcJ/4es6chSYzj0vNNLwgtkYEhDuWUND41PGhW/JHP9FZCVb96SyLeKEu/BP5Y+9kMrbT1bierUjYLv4rlCs3NLI4glHOdYF47MeoaHxEastOCD4g9GRbcxdUsID/ovoQCX/wVR2hsr1Yi7TjuzlsSHss2HJHDY8WUnl8RJK3oGVhYBzKw2NkeeOHHtjDo+x1R8q/e9J137KFu4nUkAsDwmkIiKmYU/K3L1rJ488vjTi+oGFVCdy/HMZzp3n6xvHBty9Yefh5xbDDvPCPfTpj3cvcHL27U2c+VExs88F3gFi5+GC+5nwQzvT78iBaWPhrI82gieMtgUMecS9d/wXvie38vbf+v+FH+miGDh23zdhL9RRPol0PlbSd1mO7wrFhiVz2OCfY9D/kEWkYBU4z6S/4QPougIvdPw9feGv6/3VzF0y1Av3SrY+Op9pNNLw5H7eP2P2bTUbeIpHvlzItsl7+v4LrHSmcOxIF3gW8tirxusHNyULI0TLLY3M/lJhQkTCDTtQnDp5go8bGvjh3LnWuo8bGjh18sTgD5K2iNIH/HMZXtwExb9m4Y8W4ajfxZRifxVjQQ5/DJz0OIQhDwDHA8X+KOJkeYV/LsXJvTy/6R0enlaMY9qPmH4jtP3FOEfbzhd5/lN/ZcNyHmY+x28f6LszxTxnW9Dtq/Eh8KIUybE3zK/65lrMfWF+0ATBYEaFIpD1ifz9VMZ3dXCUDWzwz8UYiU/rV1ak4BOgK6DCZs21mMMn/U5wNF9z9Kw5FE9upeHRR1iJe2hzNZ6czTRr2MVF5Z7b6DhE+O2fATYsWWgEzSj7LiLfbdf39vYOe+cP/vwnpkxNY8JNEznzt9N88Oc/DX7ntPDnO3ywaS+3VuTy6HPT+f6NAF72WGGinqrS4Cv35eZdfLBpExOeK2b2Wf8wib8a8rWvDfDy8bHzzP7hWL5/zsMb/YWCSRP4Pmc56huHI/CZFWmhoSN+dA1Qkg6+cAR8Cr1/PoyfP+gKxfSbxtPlcUPGI4w/80nQbYfGBXB6HN9aOdDzIsxP6H6vPsbcV82WgSY4DlShOEpH1yOkZoSszkjte+9CvfoY252NuF50sWEowSygvzCd1PGdfPIl3PPoGv/3tTHov33hMtj8LY2Uh86t6eqreIiIhIrqORTffvstb2z5v9w08Qf87fRXfPvtt4Pb0RzmOOnhk3FOaz7F3cW5OPxDH8G3Yw58y2jECoX/IVbTbwRuzOW3xTY+GWdUQz7w3zXSduYsMBZudPJAzq6IlYa7Z9rh5F4+5kf9VkHizeArFCH6fWhRaIViJbOzjvLJEheVe6Zz7J3HMO/2cM9xw4tPAUcpeTWVt7esZMOSeIsUQ6hQhDjWzwTHgSsUbvYfeory+ytxvWq+vyvZ+uh0jr3R/wyJDUu2MbvxKSrvdw9tkmfgRNIj23iM2bgGGPKIZP+SOZSEv0oq98wfQkdE5Lsk6gdbffvtt0Mb5sDOwz+y+4cK7Dz8nBOws7Di10bzyb9QscNGaXEuv62Y6a8IhFcnYHB3hlRswqiEpDmZDXz98TtGhcEfatrMORYBD8rqYzz86uuPzWdvGv1cGLDFWeJM0CfUIRpsheJ+/zDHk4+wePxRtr9qTCDkjYVsAFzmdu+U4C7cQ+X9G+LoORSR5wYM1vAqFMZdNtO3NAa9v13vr+aBAb9XG9j2fi7lL2xl5TvbgPEhk23DKy3GxNP9lM1Zzfw9a0j1bAD/fSyDfm39BqrppI7vouP4oA4nIt8xMXhSpjEp0+Bgwo0Q6dbLitJdRmCo+DV3hz2lcnDuLv41C9MwHlj14i7ayGF5hXn753k+2fQr45z1m+C5YmYvyOGP+2z+oZjzHMXGdLOiUWD0PW6HPPq5vbF/EW5vHGSFwnXPbXDo9zD5Kbre/z0bWMnWm/by2PuVvN04n/F08f4LxlE2LNnL1i0r4Z3YVyki3yI7gJAHecFwKxSGDdYdNZGFP5EzZN0ggpB1jvsrWcl+NrwKPBlyrPs/Y+ULjZTTxfsv9O1rvLaQIR9C3rcj23gsbsKhiMSTMRkZGZcyb7kVGPyTMkVEREQC6a+NioiISNQUKERERCRqChQiIiISNQUKERERiZoChYiIiERNgUJERESipkAhIiIiUVOgEBERkagpUIiIiEjUFChEREQkagoUIiIiEjUFChEREYmaAoWIiIhETYFCREREonZ9rDswsuy4flaEM+k8npqXcLdFf8RJec/yePZYupuqea3OG/0BRURErgHXVIViUt6zlJatYfHcWPdkZOVXHeBEbUmsuyEiImK5pgLFxJSxse5CHMqjqrGF3cofIiIygmI75OFYxIql2ST3NPH6hzYed9kB//BEahGlLjsAJ92r2d5g7pTD4jIXaeZim5uKmjb/0IaxKs21htK7mnj9FU/AyQL2a3NTUVNvtTiXrsHl6Nsy+Hz2gGN78TQFvoC+tuB9REREvluuS0hIiHUfgGnk+8MDjMX58LOssJYh7a5FTALCwgSAw8WKvJsue4abHw7Yz+GyhkVCwwQYgaSvvS+ogB1n9nCrICXsbj1AVUHk5dLaFnaXlLC7tYUTrS2caK2lNGDv/KoD/vUtrHfZgo5cWttitZ1o7atGGPusI9cGM4vN9sA+hOzbuJH8Yb46ERH5bouPIY8k+KJmNRU1TXRHXLYxEZiUl9NXYSjva0/OmMzhV1Zbky5PuldT8cou2q0TjIXj1VSU922TbLODYxFzHABe3OWrqShfzetN5wFIy8oJaD+Pp2Z10P4GL+5XjPVXojoxs/ghvM9kMjU9k+pDM1hUlQcYwWB99qc8nW60Pe32Be1XkW+sn5qeydRn9jGhwAgGtcvnMTV9FXt90LzJ3GYey3diHXdRxypr36eb7uCX/nOKiIgMRXzc5dFzjMNtAD4jIHCWzqDlEA4XpWWuIZzgPF8cNO7ION15HhwhVYYeH6f9X7YfPEZ3djbJyTZ/VSSwf/3sf4X43L+1LvYVH35O0V0zAcjNttG88wlq+9kvv+pASNXic2ZCv9sb8sjNtmGzreNE67q+1YdmAnXDfQkiIvIdFR+BYqhC5kCYJg73eP4KSDsw6fZpRoDp9tGOLaw97iZ+Fmzkly7Y+0ymEUYKNvLR2smD3NnH3mf6KhYiIiLDNaoChVU9CKlQhE6IjDwpM4K2XTS2ZeNy2HGVraHviOfxvFcPbXa+6MnGmRTabhrqpEwb9unGV6W1y5iJj8hPssijqmAGzTuNGQ3e0+vIvasEqISSWqMacci/6fTJ2PDh9YeC0iULsPF5wLHq8J5eh3NKHsGVB2N9UclG8geofoiIiAxGfMyhGKy2XbxmzquIwPNe/2398dRU4+kJXBP4ECwv7j8GHLOnCbd/jsXQVVLt9lmTIxd1bGZv8FQIbK51/gmS63A2reLBSmN9Rf5mmmctM9oKvuTpTQGBofIP7PXNoKjVPO4+mkPOXLFlH1jH7puUWZG/ir0sYH2ECZ0iIiJDMSYrK+tS2s3Gx+YjzYdj3J3vrtLaFhZ1rOLO5Zq/ICIio8/oqlCIiIhIXFKgEBERkahpyENERESipgqFiG25OB8AAB4qSURBVIiIRE2BQkRERKKmQCEiIiJRU6AQERGRqClQiIiISNQUKERERCRqChQiIiISNQUKERERiZoChYiIiERNgUJERESipkAhIiIiUVOgEBERkagpUIyYPKoaWzjR2sJHVXlhraW1RtuJ1hZO1JYEteVXHehra9xIflBrCbv9bbuDdxMREYmZ63t7e2PchRwWl7lIMxfb3FTU1INjESuWZpPc08TrH9p43GUHzuOpeQl3ahGlLjsAJ92r2d5AP9tDd1M1r9V5ATuunxXhTDqPp6ae8Uv95zTP5+dcugaXo6931vGtfvr70DbQayphd+sy2LSKvQXrcIa05lcdoIjNTE2vBIxw8VFVM3cur4OSWtZnf8rT6U9Q6992fW0JtfmVULCRj9begeeZzbB22bDebRERkZEQ4wpFSJgAcLhYkWcPWDGNfJe5PBbnw8+ywtXXnnbXIiYFHTNwe0jO/j9BAQHg5ocDzulwsXiu8WVomABIc62x2gevkgfTM3mwMlJbCUUu2Lul0lqeNwts2bnkk0dVwQyadxphAvLIzbbBrLsoBdj5BHemz2P5zqH2R0REZGTFNFBMysvpqxKUr6aipoluIDnD2RcSkuCLmr628GUbEwMParaXr/ZXEcZy8+2BAWUsHK8OaIdkmx0ci5jjAPDiLjf2f73pPABpWTlAPdvLV1NRfrnqxGUU2JmAD+9OjIpD60N4N+3DZ5vMTGZit/nwHgWjyrEO+87NNGPDXhDFOUVEREZYfMyhcLgoLVtD6dJskkPbeo5xuA1o8xkBgrN0Bi33sz1wuvN8hA3O88VBb//tPT5O+79sP3jMOEeyLaQKcgWU1HJi7WR2pc9j+dGQtun+oPFMf1UOERGR+HJ9rDsAhM1jAMCxaHjH8lcs2oGJKWOj2n/S7dOMgNPto314vQm308uZtQsoKthnzZNg+mRsvi9pphm7bxm5xZOpTp9HBVgVjQMa5hARkTgW00DRfvAY3dnZJDtclJa5rPUn3avZ3jHco9pxla2h72hmRcLe/y4AbbtobMvG5Qjf3/NePUOblDmQSg4cWsaEjr3WPImqghn4mv5ALXXQ9Dy5qR8aYQIoXbIA26HN1rKIiEg8iu2QR9suXjPnQlwpPU24m/qGMk66B3/x99RU4+kJXDPc8GDeMrqOXBvYXOuCbvOsyF+FJ3ud/9bQdTibVhl3eAC1y+dRzTLrttEiNjM1v28Cp3HL6DJmAjOLWzjReoAqza8QEZEYG5ORkXEp85ZbATjSfDjG3YlC4G2jr+y6ckMUIiIiclnxMSlTRERERjUFChEREYnatTPkISIiIjGjCoWIiIhETYFCREREoqZAISIiIlFToBAREZGoKVCIiIhI1BQoREREJGoKFCIiIhI1BQoRERGJmgKFiIiIRE2BQkRERKKmQDFCTrS2DGn9cLcTERGJBwoUcWpqeqZChYiIjBrXJyQkxLoP15TAEHC5KsXU9MxBbxsocD8REZF4cH2sO3CtMS/2J1pbIl74+1sfuO9AVLUQEZF4FAeBIofFZS7SzMU2NxU19eBYxIql2ST3NPH6hzYed9kBOOlezfYGADuunxXhTOo7ktUWcd/zeGpewp1aRGnYsQzOpWtwOcwlL+7yajxW//z7t43MuzDYqoOqEyIiEo9iHChCwgSAw8WKvDZeO2iumEa+a6zVnOYqwtlQjQcH45MIkuZ6FlfHS7iJtO9YnA8/y81JAce6axGTGnbRTmiYACOwLOL0K76oX+VgDKXyoFAhIiLxJqaBYlJejhEmQqsSGU4mmYEiCb6oWY27zQwf40hxAG31bC+vt45lBIKxjE8FOkL2xX/csGUbE4F2xyLmOKCvKmFWP6Zxq2NX0HmGItqQMNDwiIiISDyJgyEPwOGitMwVua3nGIfbANro6oE0syphho+Bjmvt66MbSOYsnUHLoey4ytbQT0+GrL+QICIicq2Jj0BhVigCORYNuIvzXiNMGPMgwudTDI9ZoRAREZGhiGmgaD94jO7sbJJDKhQn3avZ3jHAjsDpzvPgGEuaaw2l0ZYU2jx80ZONMymkQtHmpqKGqzIpU0REZDSL7YOt2nbxWk0T3cPYtb2unpPWcdxRXui9uF+pxtMTzTHCnWhtCfufiIjItWhMVlbWpbSbpwNwpPlwjLtz7RjOcygCtzFpUqaIiIwG8TGH4hoUzcOrFCJERGS00d/yEBERkagpUIiIiEjUFChEREQkagoUIiIiEjUFChEREYmaAoWIiIhETYFCREREoqZAISIiIlFToBAREZGoKVCIiIhI1BQoREREJGrf+b/lEe0f8QrcZjD7mNv1R3/HQ0RERqPre3t7Y3d2xyJWLM0mGS/u8mo8l9t+bhGlLju0uamoqb9i3TCDwHDCRWg4CF0eyh8J0583FxGR0eo7XaEIDQqRQsVQQsZgKxTmtiIiIteK2AaKtl28Vr4rZqePdPEPXTdQJSFSKAhcF82fMBcRERlNYhsozCGPniZef2UX7YHrzG0C2wJMynuWx7PHAnDSvZrtDfQNifSzT6jQi/9AwxeXq2SY2w9m3sXlKHCIiMhoE19DHqFhAiApm8d/RnBASM4h3zHW2iTNVYSzYRBzMEJECgZDmdswEhUKDYWIiMhoFFeBwnmvESa6m6p5rc4L5LC4zEVa0jRuddAXKJLO0lj+Eh7suH5WhDPJzvS54GmopqIhuj4M5YIezRyKaPYRERGJN3EVKEzdPq//q3qOtrlIc4xlfGrABm2f+6sRXjq7gaThnSdwLoR5Ub+SFYr+jiciInKtictAkWyzA0aFYroD4DxdHUCqtQGTgHbspCT3c5BB6O+ujsHuKyIiIoa4ChSe95qYszSb5OwiSrMDGtrqcbfRFyiSsnm8LHADL0eHMSkzksFWKIY7uTLSLanmsaamZyqoiIjIqBRXgYK2XbzmthmhwFoX4SFWbW7cuHD5qxeemqFPyAw03HkMw51cGRggAv8bul5ERGS0iG2gSLURNmIx0MTKoLb68BAxzEmZ0QaDwbpcYAgMFgoVIiIymozJyMi4lHnLrQAcaT58lU5r3p1hLPXd1SEiIiKjUez/2mhPE7UKEyIiIqNajCoUIiIici2JfYVCRERERj0FChEREYmaAoWIiIhETYFCREREoqZAISIiIlFToBAREZGoKVCIiIhI1BQoREREJGoKFCIiIhI1BQoRERGJ2nUJCQmx7oOIiIiMcqpQiIiISNQUKCIpqeVEawsnWmspDW0r2MhHrS3+9gNUFQTtyG6rrYXdJcG75lcdMNoaN5I/sq9ARETkqro+pmd3LGLF0mySe5p4/UMbj7vswHk8NS/hTi2i1GUH4KR7NdsbQvYBaGvCk5yNM8ncxo7rZ0U4k87jcR/jZlc2NFXzmi/XOFZPE6+/sov2AbqUX3WA9dmf8vQmWF8c2lrC7rV34Hkmk+U7McLF2lpKd+ZTQR5VjctgUyZTK/3bth6g6ug8lu+E0toWitjM0+6HWJ99Rd9FERGRmIuTCsU08v3hAcbifPhZVljLkHbXIiYBkMNiM0wAOIwwEcnNdwVsNwS1y+cxdc4T1EZoy696iJmH3jLCBJC/4A5szGBeCVDyU3LZR3Wlf+OSu5iJDeeCPAAq8jOZml8Z4agiIiKjX2wrFKYk+KJmNW781YewZRsTAfJySANoc1NRUw/ksLjMZawLMhaOV1NR5/UvV1PRELbRkM1MteHraAb6Kg7Vh5axaEoe+djg9IfU0lflqHbbKEqdCdRFf3IREZE4Fh8Vip5jHG4D2nx0A3CWzqDlYN2dbf6v6jnaFmEDzvPFQW+khitgJlWNLSzqWBWx4lBa28L61LeYOucJmkeoByIiIvEmPgLFECWnOPxf5TDdMeCmV1Rzhw+baxn2nZncubwOyMM+Ec6cqqP2lA9mLQsKGoEVDRERkWtZfAx5DFL7wWN0Z2eT7HBRWuYa/I5ziwY9KXMgtfs+5ZeuyRyw5kn8lFzb5/55Ex/SXGzDu88/vFGwkUWzfHi2aLhDRESufaOrQtG2i9fcfUMZ3U1uPD0A5+nquELnMG8ZLZ4BzKAo8DbPnU9w5yaMda0tnCiG6vR8KgCo5MFnPsW51t+29g48z8zrm8Dpv2V0vcsGtgWsb23hRG1Jf70QEREZVcZkZWVdSrt5OgBHmg/HuDtDZFYe8OIur8YT6/6IiIh8R42qIY/+7urobtqrMCEiIhJDo2vII4LupmpeqxupOzpERERkMEZZhaKe7eX1se6EiIiIhBj1FQoRERGJPQUKERERiZoChYiIiERNgUJERESipkAhIiIiUVOgEBERkagpUIiIiEjUFChEREQkagoUIiIiErXrent7Y90HERERGeVi++htxyJWLM0muaeJ11/ZRXtou/nXRPtrHzI7rp8V4Uw6j6fmJdxtUR9QRERE0JDHwByLWFG2htKlObHuiYiISFyL70DRUE1F+Woqrkh1YhhSbSSP1LELNvJRawsnWls40XqAqoLg5tJas62FE7UlQW35VQf62ho3kj+E4w7EOm7oMQFKav3HrKV0CC9z4P6UsLu173V+VJU3lCOLiEgciZ+/NmoObwAn3avZ3hCwrs1NRU09zqVrcDngpNsNLhdp/vXW0In/UEF/0jywra0JT9BJzSGQvjXmuSflPcvj2WP9x3BRWpZjDZOY/TB4cZdX4wk4ltX/fuVRVXIHnmcyWb7TuJCvL9lI/s4nqMVYLmIzU9MrASNcfFTVzJ3L66CklvXZn/J0et+262tLqM2vBErYvbbvuBRs5KO1tZTuzKfiMm9/aW0LRWzmafdDrM8ObsuvOmCccxOsL77MgQb9OvOoalzGBPcqpi6vM7ZtXMfukjoerBzKOUREJB7ESYViGvn+MAGQ5irCOcDWyXflkGYuhIQJgOTsIhbPBchhcWCbIzsoPICD8UHLkOZ6NiAshAsOE2CEkkVMGqC/4epYPmeecdEHavd9is82mZkAlFDkgr1bzKtqCfNmgS07l3zyqCqYQbM/eEAeudk2mHUXpUB+1UPMPPSWddz8BXdgYwbzggscEVXkZzI1P/KVvHb5PKbOMc95pV7nTOy2z9m1vM7adm+TjwlTVKUQERmN4qNCkQRf1KzG3ZbD4jIXaYwjZYCLenJ3PRWv1APGBT6ZgKqEv6qRlpXDJJs/eFiTOs3jm+rZXl5vLRlhYSzjU6G97iUqfMEVEhyLWOGA8KrENG517ML9ymrcw3j5+QvuwHboLaOKUGBnAj4OWBWGO/Bs2seE4snMZCZ2mw/vUTCGC5bBps00Fz+EvQBIteHraAb6Kg7Vh5axaEoeUNff6a+aoNdJM17fMiPsVIIRpGzYDs0kHvoqIiJDEx+BoucYh9sA2ujqgbSkgTc/eaQ+bF1ydhGl2RE2BrqPe/xzMEKOH6G6MTh2XGVrcA15vwhKalnv8lGdXhm2/kQxVKfPo6JgIx8Ftk3fyEet5lBCCbuDhiFmUtW4DmeTMZRQWrss5JgzrEWfe5UxjBKl/KoDrHfZrOXmTZnhwxZhr7OO5ZW5fLS2hRPFAJ+z1+1jAs1R90dERK6++AgUV0DQvAm/SXnG3RnJKQ7AS+gQh/NeI0wYcx7C51P0z6xQRMkKDQFzHHZ6ObN2AUUF+6x5EkyfjM33Jc00Y/ctI7d4shE0IKii0bzAR5FrGfZNmdxZCZCHfSKc+dAfGirzmToC8xNql88beDgk0usE2PkEd+7sWyytbcH+oaoTIiKj0agPFJ4jXlwOe0iFwv+ciYPH6M7OJtnhorQsvJ5wuvM8OMaS5lpD6UDlBmtS5v/LFz3ZOJNCKhRtbipq2oYwKdP8VO8Lv8hSyYFDy5jQsdeaJ1FVMANf0x+opQ6anic39UNrn9IlC7Ad2mws7/uUX7omc8CafvFTcm2fUx3DSY79v87w7Yom7uNpTcgUERmV4mRSZhQaqqlweyO3te2itum8tdjd5MbT09fcXlfPSWtbd/iDrhr2Bm0PXtyvVIesGw5jvgDMoCjCbZMV+avwZK/zrzeGL8yhidrl86hmmbVPEZv7JlPufII7N9F3zEhVgX6Yt4yud9nAtoD1gbermreMFs/o63OkW0uH+DoDb39dn/rWMCd+iohIPBiTkZFxKfOWWwE40nw4xt0RERGR0Wj0VyhEREQk5hQoREREJGoKFCIiIhI1BQoRERGJmgKFiIiIRE2BQkRERKKmQCEiIiJRU6AQERGRqClQiIiISNQUKERERCRqChQiIiIStesSEhJi3QcREREZ5VShEBERkahdH+sODNncIkpddmhzU1FTH+veiIiICKpQiIiIyBXw3QoUJbWcaG3p+19tSVBzaW3/bflVB/raGjeSH9hYsJGPrOMeoKpg5F+KiIhIPIn5kIdz6RpcDnPpPJ6al3C35bC4zEUaoetD97bj+lkRziQ46V7N9oaBzlTC7mKoTs+kAoA8qhqfp6qgkuU7jcBQxGamplcCRrj4qKqZO5fXQUkt67M/5en0J6jF2HZ9bQm1+ZXGcdfegeeZTJbvxAgXa2sp3ZnvP4+IiMi1L6YVikl5zwaEiQAOG8lBK8biXFqEM6qzNeP1zaDIrDyU/JRcmw/vToASilywd0ulf9sS5s0CW3Yu+eRRVTCD5p1GmIA8crNtMOsuSoH8qoeYeegtI0wA+QvuwMYM5pUgIiLynRHzCgUAPU28/sou2q0Vu3itfJf/a7MKMY6UsPDhxf3KatyDOkkdy+fU+Yc1loFvn1VxoMDOBHwcsCoMd+DZtI8JxZOZyUzsNh/eowAl7G5dBps201z8EPYCINWGr6MZMKoaRWym+tAyFk3JA+qieFNERERGj5hWKNrr6jkJkJTN42VrKC3zVyHmFlFatsb/P2NII3p5VDW2+Ic1Mqk+vYD1rbWUBm5SUsuJtZPZlT6P5UdDdp++kY9aH8L7TCYPVoa0MZOqxhYWdaxian5Yo4iIyDUvxpMy69levpqK8mo8PQB25uTNxnWXHWPexGoqyt1G6IhWQS5O2+dU+y/4Ffmr2OvzD03s9HKGGRQVfMnT6f65D9MnY/N9STPNeH02cov9QWMnVkXDuxOaO3zYXMuw78w05luQh30inDml6oSIiHx3xHTIY1LeszyePTZoXbfvEzpTHoKksTiXrrnMvImhTMoEsBnDFDsBZmK3mesrOXBoGRM69lrzJKoKZuBr+gO11EHT8+SmfmhNsixdsgDboc3G8r5P+aVrMges6Rc/Jdf2OdUqVIiIyHdIfMyh8OtuqjZCQUcTc5Zmkwx0N7n5IsMV/bDHzie4c3otJ9a2cGKtscrnXsWd/gt/Rf4q7I3rONG6rq9tuVFlqF0+j5nm3AuAQ5v7hjbM47a2UATA51Sn6w4PERH5bhmTlZV1Ke3m6QAcaT4c4+6IiIjIaPTderCViIiIjAgFChEREYmaAoWIiIhETYFCREREoqZAISIiIlFToBAREZGoKVCIiIhI1BQoREREJGoKFCIiIhI1BQoRERGJ2nW9vb2x7oOIiIiMcqpQiIiISNQUKERERCRqcfLny3NYXOYiLWBNd1M1r9V5jQXHIlb4/5y54Tyempdwt0XaP7QNnEvX4HIYX590r2Z7A0zKe5bHs8caK9vcVNTU9+0QeL6eJl5/ZRftV/DVioiIXGtiX6FwLGJFSJgIMreI0qAwATAW59I1LJ4baYex3Hy7PWA5h+mOy/VhBs6AxUm3Tws5n4iIiAwkxoHCjuvhgEpA+WoqyldTUe7mCwByWOzyh4M2t79ttVV9SHMVBQUBes7TDSRnOJlkrps7o/+wAnT3nAfsTLfCiZ1bM8ZeiRcHQGltCydaD1BVELi2hN2tLZzw/293SaR9/P+rDWkUERGJQ7ENFHNzcSYBeHEHDSvU467zBoQBL+6AIQlPjZuTQHAQAJLO0t0GJE3jVn9VwpllB7ycDBgCCdJ9lm4gLSvHWHY4uTkJutu8dAdtmMPisjWUlj1rDZ9cTn7VAYr4nOagtXlUNS6DTZlMTc9kavpmKO4LHMY+m/1tmVSzjI+q8gZ3QhERkRiJaaCYZBtnfNH2OZ4htbfR1WN8lWyzB7UcPeKlb9jDP9zR9jlH++tE5+d80YM17GEMd5zniyO+4bykPgUb+aXLR3X+h8HrS35KLvuorjSX72ImNpwL8oASilywd4vVyLxZYMvOJT+63oiIiIyo2M+hiFK3zxu8osPXN+zhsJEMnDxSH2lXvzY6u8GsdkxMGQs9xzjcEbpdPdvLV1NRHjzhM7I8qkoWcGZTPhUhLflTbHDaSy1GNeJEwZdUu33YUmdCgZ0J+PDuBAo28lHrQ3g37cNnm8zMy51SREQkhmIaKNp9Z40vQiZFXr7dwfikfg7a5jEqDkk2bvVXG7rCwkEwzxEjlCTbFhkVjW5fVHd15Fc9j7NpFQ9W9r9NaW0L61PfYuqcJ0KGRICSWk6sncyu9Hks77e0IiIiEj9iW6Fo+NyaC+FamhPQkIMrz95vu3Op/66Qnib+3BB6UC+HjxsTLZ3Z/mrD5SoK/vMkZ2eTxuUqGpdTQpHLhs21zj+xchkzsZG71phgWXvKB7OWsahjFVPzjcQxM9WGr6MZdno5wwyKCr7k6XR/dWP6ZGy+L8NDh4iISByJ8XMo6vlzUw5p2WPB4aK0zGW1dDdVA/Vsd8+g1GUPawc4+WHk50O0HzxGd7Zx90j3cQ/twMTL9ONom4s0B4CXow1A2MRL81kX4c+5CFbJg+mBpYkSdrc+hPeZeSzfaSw3F9vw7qszmgs2smiWD8+WOqCOA4eWMaFjL7UA5FFVMANf0x/8yyIiIvEp5nMo2uteosLtDVtvzY1oqKaipinkjgsv7nLjAVURmcMenOeLg+HHjsQc9uhvguiVU8mDz3yKc63/ttC1d+CxwgZU5K/Ck21WN9bhbFrFncvrRrRHIiIi0RqTkZFxKfOWWwE40nw4xt0RERGR0SjmFQoREREZ/RQoREREJGoKFCIiIhI1BQoRERGJmgKFiIiIRE2BQkRERKKmQCEiIiJRU6AQERGRqClQiIiISNSuy8jIiHUfREREZJRThUJERESipkAhIiIiUVOgEBERkahdH+sOBLPj+lkRzqTzeGpewt0W6/6IiIjIYFzjFYocFpetofRni5gU666IiIhcw67tQOGwkRzTDuRR1djCidYWPqrKC2strTXaTrS2cKK2JAb9ExERuTJiP+ThWMSKpdnGhb+tCU/YBjksLnORZi62uamoqSd4eKSe8Uv92/Q08foru2ifW0Spy27sk5TN42XZnHSv5mjWGlwOOOmupuuuIpxJAfv4TzEp71kezx5r9aC7qZrX6rwB54ST7tVsbxjohZWwu3UZbFrF3oJ1OENa86sOUMRmpqZXAka4+KiqmTuX1w3l3RMREYkLMa5Q5LDYDBMAjmzjAh/YHhgmABwuVuTZg45y88MB2yRlkx/SHknyXf+n71wB+4SGCYDk7KKwc15eJQ+mZ/JgZaS2EopcsHdLpbU8bxbYsnPJH+JZRERE4kFMA8WkvJy+qkL5airK3ZyM1N7mpqJ8NRU1TXQDyRnOgDkRY+F4tdHu9oLZ3lBtbW8eP7CikNxdT0X5al5vOm8spziAHP6f7LHAeTw1q8OPiRf3K8b6gasTl1FgZwI+vDuBgo181PoQ3k378NkmMzOKw4qIiMRKXMyh6D7u8Q83tNHVE2EDh4vSsjWUBlYzLOf54qBx0afDZwSIQTh5pB6Adt/ZCK1n6TTvMGn43Ag5STYmDvLYg1ZSy4m1k9mVPo/lR6/0wUVERK6e2M+hwKwOeAEH45MibGDNmwhk51YAxjI+FWgDUq/UJMxxpDj8x5w7w19F8XH6ihwb2OnlzNoFFBXs4+n0J6gFmD4Zm+9Lmq/UOURERK6imAaK9oPH6M7OJtnhorTMNej20AmRaa41lAbs3lfx8AuclDlgj+r5c1MOadljcS5dEzSR8uSHu2gf0qTMgVRy4NAyJnTsNcIEeVQVzMDX9Af/soiIyOgS2yGPtl3U+ucwAHQ3ufH0BLe/Zs6D6Nd5PO6Abdrc/jsyjP0bh/hwrPa68AdqDS88mLeMriPXBjbXOk60trDbf3doRf4qPNnr/LeNrsPZtEp3eIiIyKg1Jjc399KY6/8BgCPNh2PcnaHQUzVFRETiRVxMyhQREZHRTYFCREREojaKhzxEREQkXqhCISIiIlFToBAREZGoKVCIiIhI1BQoREREJGoKFCIiIhK16/569His+yAiIiKjnCoUIiIiEjUFChEREYmaAoWIiIhELejPl2fNvDVW/RAREZFR7P8HUFCJI3orrocAAAAASUVORK5CYII=;" vertex="1" parent="1">
                    <mxGeometry x="190" y="10" width="363.13" height="200" as="geometry"/>
                </mxCell>
                <mxCell id="39" value="" style="shape=image;verticalLabelPosition=bottom;labelBackgroundColor=default;verticalAlign=top;aspect=fixed;imageAspect=0;image=data:image/png,iVBORw0KGgoAAAANSUhEUgAAAaYAAACuCAYAAAB9VanaAAAgAElEQVR4nO3db0wkZ54f8K+ddaKLcnL2nBqPCGQGZrjxdC+WYBQmoFx2lZW6W9FA05I3UlZaxVLTSH3IJwQvUm77pRd3IoFQNlxJNC05cnQvzpaaAl40Le1pI2+awAnQbbvxzXLDjK85DlO7d5nbvWzOjuO8qH9PVf+huoHpmp3vRxppoOiq56murt/z/J6C33O3b9/+6vqNWyAiIvKDr4lf/PRf/ad2tYOIiAiAKzD9/MH/bFc7iIiIALgC0//7v5+3qx1EREQAgOfb3QAiIiIRAxMREfkKAxMREfkKAxMREfkKAxMREfmKrwLTd373u3i8HMdPf/dGUz//+O3BBj91A+/Pufb52lhTxyEioifna2f/yEW7gffnvoXRF40vHz3C6tev218DeHngW3i8/C39i8ePMD7zQ3xQY08f7H2G7w9cx8vXO/AOgLfrHHH1wxKux7+Fx8t9+MH4St2fIyKi9mspMP2jf/D3cPOf/Ebd7Se/+Bwnf3PG70Q9KuEH6MMbwtcvvrPt+JF33o7jja+bXw3io+U+vFpzZy/hjeW4vS8An+3+CL/9+w8APMAHmw/wwea2vr/lMSDfuGlERNQ+LQWm//Cv/xn+Zfc/rrv95G8+x7/7b+WWG9VQgxlUNT2YIZ/F73wIvP1OFm9DTwESEZE/tbTG9OBn/6fh9j/5y1+21Jh33o7ra0ZnrhuZBvGR62f1fXwX7w8BGPo5/nP+53g1EsfjuW/jO65Xf3b6oKV2EhHR5WkpML33x3+JBz/7Vc1tf/v5l/gvPz5qvUWPSvjBo0Y/8Jv4vTkzGG3jvz8CYKwxAYP45nUAjz/D6iaAzQf44MMVvDj+I6ziOpZrBCciIvKXlh9+SP/RnyPzb6vLZaR/+Cl++XdfnqtRjf1DvPwigBdv4v2hbaz+1a+A6y/hm68B+IvfxMsA8Ne/wAfuhywAANexvBy3vno1EsfjiL3VXpciIqJ2aTkw/dnP/jf+6x+f4N//86vW93788H/hxw8fX0jD6vrrP8Nvb3bgceQljH57EN/7of5k3quvDOI7V17GywB+8qf6QxTfm6kRZF4bw+PIS02uVRER0ZNyrt9jElN6f/v5l/iPf/Tn3l98vQ9vXG/i+0P6bOizv/o58GEJq4+hp/A2H2HL+P/v/dZvAPgVHv1FvYPewPtDL+n/ffE6lpfHjBQgERH5xbl/wXZKPcDUygHG//BPm0vh1VtLelTCi+PZqkfH8U+NwHSqPwK++uBXAF7CN197gO/NZPHi+DEgri9VGcRHy3pq7yf5LMZ39de/sRzHR695bzYREV2uc/+C7S//7kv8yXEzT+E9EFJs23gbN/D+nD5FMh/n1t3Ata/b/9dnOvZs6IPf/wNnGu61DrwK4LMHj1zpOWGtyZG++wN7HSoSx+NXqn+PioiInrw2/OWHszh/kfYneT2QfPDhdfz027/Aav938The/5d7zb8a8dnuj/CHv/UtPS34+BHGx2utJxlB8rUxPI704aPXtvE7H15Kp4iIyKPnbt++/dX1G/rTdf/j5Xttbg4RET3rfPVHXImIiJ7/4osv2t0GIiIiC2dMRETkKwxMRETkKwxMRETkK47HxZ//2t9vVzuIiIgAuALTSzf+RbvaQUREBMAVmL5U/k272kFERASAa0xEROQzDExEROQrDExEROQrDExEROQrDExEROQrDExEROQrDExEROQrDEyxRWwfqki1ux1ERASg3YFJVvFwaxFR4Vsp9QDbyogRMA7w0P1vaxFRyFivtc0MMDVeuy7XbkI01A9sLGNW/J5SFI7VVIesdtU7Xm0jULbstm4rI842mu2p1SZHX4tQYk01mIjId/w7Y8pNYrCnF909vciUAG1jGt09vei+OwkVadwztk1taEApq2/riQoBZh8Z42e6l/YRnKh105aRCAM7hTXrOyn1AAsdq/p+mxFbxPbhKCozWZSb7GpUeRN3do3+zRSA8Jt2W2UVCwN7mDL7u9uPBdWMejLW5/qxM2P0c2YPd+Y4+yOip5t/A9NFSm+iDAldt1zfl4cQLK0imbO/NRvtRXc03fwxcpMY7Bl27MsrNTmMwaQRHHN57GhmW0egxAIo5yahQv86MiABfUNIAYgqo472R0P9kBDAcFOzNSIif2l/YJJCWBBSbom+SziGPIQg9lF0xJsRKDEJ+fdaCEKXKRbBHclsaxBdkobKfUBPE86jK5fVg2wMCHZI0I71+Zk508uUgCvXRhocgIjI39ofmLSClaYy03YXI4CEGfAmgIwjzQdAHkcEe8i3MMO5PDLW50I4XXK19ZaZJuzFvao4GoSydYCx4+nWZnpERD7ztbN/5Gm1Xx2MBKmhAMq5qJEi8wMZ64dxYEkMPmVUtDgiE53I9AzrfYl14Qo0FHNAOaQhEY6ja6kXg2kAGEHXVeB0c63eQYiIfK/9M6Z2iC1i7GoBmZYmGOYTdBf4kEFsEdtVQQkA1pDf1YDSphVgU6+HIBlfq4U9aGKKUh5HRHKnLImIni7PZGBKvR4CdvM1Z0vmo9kLYcle/1K9PE1gPioeRxBAcML749up10OQrNc4HwtXk8PIIG6vwSFrp+xykxhcQuOUJRHRU+a527dvf3X9hv642iflj9vcnCcgtojtuU6s8AZORORLv8ZrTHXkJjHoqwceiIhI9Eym8oiIyL8YmIiIyFcYmIiIyFcYmIiIyFcYmIiIyFcYmIiIyFcYmIiIyFcYmIiIyFcYmIiIyFcYmIiIyFcYmIiIyFcYmIiIyFcYmOjJkVW7rEedUiIp9YJrXXlwucfU63et1+huO/rarJR6gG1lpN3N8IfYIrbN69djSRtqjS8Ck/4Btf/V+hA3T8b6ZVw8smrVSvLKrPHk/vfMfeDTUXT39GJqQ3uih40qRY81tS5BLII7aLUoJdXUwmfQi8bXyQgUOYTTpV509/Siu2cYSS9VCsTBmOfabtTmshcjULbmEUEBUz2TPipzfrHU5LDRNxnrh6OozHi8qJ9Bs9HeJ14n6zKPqRelnK55bbejr9SqILokDZX7zbxGxvoEkOkx3+cRKFtvQoml+fk/Q3tnTLEI7kj7yNytF5TMMubOqq6APrrZVhaNqrHOlIg+A4sjCAmRuertdrXZ6plLSj3AuiJM2a1jGq+ZCNiVbS9iBBRbxLZrZhdVitZx9X7KwnlwzQId6YUas01jxNbcLNR5fhznLraI7a1FpIRZoH3+ZKwfqkh5SNnVPg/V77Ot8bVQcyZq7HMhLAF98brb6x7TNdq1z6HeT6XmOXCex+G+fawk1+rus+q4ru2O/brea2/Xrev8NXludRH7enBsa3CdYATKVhGKXKdNrr64rxNHFuVCPoPuDIrwdcPrRKxMLdxPPB2zjIoWQML8WXkcEUlDhUHpTO0NTLc6IWlHKNfcqM+m7uxOG1PnXmROQlgQLggpHAKMqXWmFMCY8UGdjfaiuyeLMjTkZ8ypd1QYtYyiYn1/GjsDbzpu9sFwP3Zm9G15hJCQASCNez296F7aB7QCpow2WWXOW5WbxEpJwp2QeZMZQWRAQjlnB2spHEdXrtdIgwGR181zIGN9rhMrZlt6ssDERaxZGH3tMY8pWedWb1AIiY5VfftMAQiPC8cMIBE7Ms5PFuW+UW/p1NwkBs3zW8WYWZ9krTZ1C4MZNTlsf78ni1OzPcY+pzY0oGS/dtAMFI2OKatGqfpeq59XJsQbWwCRgT29n1XnQBdVRnFlY9k5KzLSmeY+nUnNESgxSbhmhbbGFrE9Z16XZj/nHQOO2tftWRqfWwCQwv3G58W93zOuE0iIxIDv91S/NvW6mBZzfo6iShFjx/bnfmq3H28pIzjzM+gO+l7XghpeJ2YfXfcTT5/7NSTv9iIDI9jFjjDFytmetDUwRa9JDbYG0SU5R5uzm/vA1S571FXK4p5xfZSPNUgdwbMPGovgjiTOpOYRkSR03bJ/RNt415hqr6FyAly55m0tyD1y9zpLmX2vAAxE9H7VWpMQ+qkW9qCZ50AeQhABJKxj6qO6LvGDaNwI7zUVP50j6IWw5Dq3+8iYH8xcHjuaeEwN+bR5Y0ujWHKe25aYM+t6NwPHDanGOWhB9JoETQwqZj+tvgj9zFVwWnVMGYkwsFNYg3drqJzo12bVDOxWJ6TSqpACSqNYcl6bja9b/SbpDjpnntuG+z3rOoEwwNKPL35egxO1Zh76wEwKzzfcb01i0Lf+XX7avP7nXj8/CWTtgbXPH3bxi7auMamfalgIdyIIPNn1Ja2Aqbrpw9bZa0lNyuWxI8/ro8lr/cDuu973U8qef9bmElXedKz7RZUiFjou9BAXSMb6RADlJfOmp6/jtZ08hGBpFfeavCma6076zW7+Ut7fi3Ke68T6rBiDCudnUkO+lXVYWdXTfA4t7qsJdT/31lKF/v7NRqfRtTWPYRmAP99S32hvKi+9jLyYg3XQ87N2amAESiwAbTfv8aZdRkWrMVrPVXAqhYzUQAvuH0GT9GB6cdaQzO0jOKQiEdacaxIu+mK6cQ7uH0HrizeembWwxhTskICTivXARiLcYGYrjyOCPeRrffBjixjr20fxvB/CXB47jmtBPEYXrsBelI4qo1Xvjfqp5pxpe6B+qkES03PyOCKS174YKbn3Wu+4mhzWU31mu+8fQRPTorFFjPVpTc3Iaj6e3ujcnqGp66SedFRPk1mfKWPWKDd46q7eZ/DMGZN9P0ip8Qu5Ts4mzqSD6GrhFD2L2vy4+BqSd6eRvxqvMRVeQ/Kunke3Um4nWTvn7mXfuX09XeBYmE3j3kwBEFIFTf0uSW4SKyUhfXZRj3+mN1HuCyBY2qzOQQsLsglknWskS2If6y1uN2f2vQI065ijqGy412CE/k/A9fCKkCad68fOjJ1TN1MejkVma2HYSMeJC9tWX9zXgrDNWKMzj7nQsYe8+2n09DLysBfLrTRZo2Omo5jakIR+SsjPeFwfaBSsG7/Q+TDBXD92rHThJAaXNOHchnC61NxMoHysAQjoI3ZLg3N7hrOvk3pcD1scxoEl+9zORqcd71fVwKqlz2AamQ3N+qyMHWe9Xyetcr9nh3Fc2ZhuMq3+bHru5s2bX/W+8g0AwCflj9vcnGeZjPXDOLDkXA/S0yOr/knnxBaxPdeJlZqLuHwc3nyYoCvnYV1PVvUF8UtIK9c93gSQ4QI8+Vybf4+JTFFlFEGtgCmfxB9q1RqSd73N6lNDAeBk8wkEJePJO0lfb2FQIr9jYGo3a8F2H5lf418yJl1KPUCiz/hCK2Dq7pMYiXgPlkR+wFQeERH5ii/+Vh4REZGJgYmIiHyFgYmIiHyFgYmIiHyFgYmIiHyFgYmIiHyFgYmIiHyFgYmIiHyFgYmIiHyFgYmIiHyFgekZlVIv4M/6ExFdAl8EJr2AWfMlyRuTsX5YtAurXRRZbanmUVQpXlztJs/0ujcXcz49ii1i23ovxfPvqjV00fWsiOjXRpsDk37jTFwtYEqoOslCWk+rEShyP3Zm9PdxagNCJdI07rmqi2ZKgHZcbnObichv2huYYhHckfZdFVBFrkqXwkwlqhSxrSwKo3C7Cq0+A4sjKFZTdVSpdY7exZRWSj3AuiKM+q1jGq8Rq51e4IjfMWv02E+9WWrVLGRbGTGqxc4jIkGocOueQUbs/VbNAo1z39TscA3Ju3aRQLWwV78MvVF2vVEZeSJ6NrU3MN3qhKQdofaYWS9udmd32h5hn4SwIAQCKRwClszRdwBjRoCZjfaiuyeLMjTkZ8wRulm1cwTK1igq1vensTPwpuOGHQybo369xHNCBqwR/9K+XkfHHPlfQGXZqFLE2LHdz6ndfrwlBMt6/URsEdsTktXHqQ0NKOml19XksN5+DSgvmX11VpaVwv3GeRD7eXGioX5ItUrFA0i9HgI2llm0joiqtDUwRa9JDbYG0SU5R9Szm/vA1S57BF/KWmm/8rEGqaPm2NwpFsEdSZxJzSMiSei6Zf+ItvGucQNfQ+UEuHLN20MC+iyl2bWyEUQGJEjheet1C2HJ2Zdm+imenzM07ucaknd70d1q2W9ZxUJYQ6ZW4OZsiYgaaGsFW/VTDQthPdXzRCu3agVMtXrDbUBNDre4T73ktTib8SSXx44c0oPsHOCbKriyiocTQMaapYpGoMghYGOasyUiqqm9qbz0MvJaAIma6zRlVDQhbYURKLEAtN28xxtvGRXNORMCAOQqOJVCjlRZU+4f1V83ackaKieS8JBAE+RxRE6ywgMF7kDQ3IzPqZU1JmPWWDcoGW2WOFsiovra/FTeGpJ3p5G/Gq+RAltD8m4Wp1aKax6RE339xPO+c/vCwr/50EAa92YKgJA6q3qgoJHcJFZKASRaefihr1Y/gdmovsaz0GwaML1cde7cfZl9T+zrJTw+7yAjEZYACOfH8XCJMbjg2hIRNfDczZs3v+p95RsAgE/KH7e5OdQUWcXD2JGQlrQfGPEewImI/OX5F154od1toBZVPzwSRJcEnH7KoERET6+2PvxA56Mm30Vkax4LhwdYML6nbUxjkL+gTERPMQamp9oaknc5OyKiXy+++Ft5REREJgYmIiLyFQYmIiLyFQYmIiLyFQYmIiLyFQYmIiLyFQYmIiLyFQYmIiLyFQYmIiLyFQYmIiLyFQYmIiLylfYGJll11RJqsl6QrDZdyO68UupBzZpKbeM4h85aTOdrq1EosJlaVefkaK+7zlVsEdv1rpNG29zXWDP1s1o9picy1g/dhRiN77XQ3qhSbPhZcmxv9jNT8xwa14fQPv39068X97Xnm88LPRXaP2PSCpgyK7AuaYjMXXYxu9ZFlSISECvG9uJeW/+St4z1CSBjtCVTclYDno3a7exe2kcw1sQNKRbBnZMsMqUAhp/EzURWhXObRbkvLtzEZKzP9WNnxujLzB7uzJkBcwSKbG+b2oCzGnA6KrxfWZT7Rj1eX+c45plGoGzFgdJ+jW0a8jPC+xZt4gIridfmMJI5sysqFgb2rM/Z1G4/FpoJeMI15mzTPsoYMs6JjGHso2xssa69mQI07Fuvb+/nhZ4W7Q9MonQUmZKEOyGj4qljVCqO9IyR5UQAkITKr+KHzfXaqpGaMQpsZgQX7HDXPxLEFrEtzi4cX8tYP1ShCKPW7VZLuzukcU8oYT67uQ9c7ap5g4xek4CTisey9EA01I/TzTRmN/cRHHKd161FpOr0JaUeYF0WR/4eZ1zpqHDDS6NYskvCR5VRBEur1o02GuqHBDNgriF5174Jq4U9aFIngrWOEevCFWio5GptdPX/3Mc0zkGNABBV3kTkJIt7m2e3o0rT161eNbics4tJRgYkoG/Iw/uiVyQuL0VrVBzWa38VN6GfE3kI2GylQ0TV/BWYAJSPNUgdxkc8N4lBYaSWOQkhIQP6DVmfBThmXNaNTcb6XCdWhJEyJs6fkpqN6iP51gJLABFz1DpTAMLjF54iSw0FoO3mheBjB4iFsIaM59H3CCIDGoppAOlNlN03MSmERMeqNSJ29yU4MYSiMIsba/pcyRju07BT0Et6BDskaMf6WDylHmChYxUZIXCJoqF+SKVNx43USivNhXBa8yZb7bzHrCu2iLcavhcSInMtpgiNa9M5SAuiS9JQuQ/o18M8unJZlCGh66x9x7pwBfv6dSCmGcVUYHoTGJKRGgKK6TIqmof9Ep3Bd4HJyZlzT/TVvjFUv2wIQQSQsF4bR9D9QTRSPM2lFoyA2DONnYH5JkeuGvJpY9Saq+DUy42hCVGliMTVAr7vKKlutrcX3UtAwuvsRR5HBEdGWiaNYlU6b9++seby2HHdjLSNZXsWF+1tssy7nua6svGunYoCAAShbB1g7Hi6fnpLVmsGYDulmQUmmnnPWj+mde4d3zdTgPWCo/B+mSnCOdd7Vue6VZPDrpRl3Dl4urWI7cNRVGZaTacJg0HX9zPHoxg7XvYWmIk88F1gco5U4wgKefNMqYkdlZxrQY6c+7mtIXm3hXWbSxJVivoawt3J+qm69DLyHkezqSFnijTRB2c679KMQNmax53daUcwKx9rkMJxdOXMIDeCrquuEvKyaqyFNJoRpZHZ0DwNbi7umAJ5HBFJmBEJqehawVIt7EHzst8qeirU6AkqmoTIRCdWzM+A15RmowFUrAtXNH3woiaHmxx8EDXmq8AUVYpI9O1jRbgRmEEKsUWM9blecP+o9nrC/SNojsXzGlpYY6pq7zX3mpP5IR6BIofQYEWqVoNqPKV1tpR6cHZQAoybopf1FT2N5liA78lWp/PE/WIP+XMHfT3N5A5KgHmDNlNKZl/sr+0F+rMChL5m4ggudZz/mDXWmBwPYjhT0bVmManXQ9UpQi/XbWwRY1YqdA35XQ0Q9lNzvzWlUSxJTT7YQXR+7S+tbowYFwDjQ2reYNeQzI3j4cQ8Hh7OA9hHfkPDHfG1uUmsvH6AxOEBEoA+S4qm9bWpWyoeThzg4YTxs1rh7Jt3Q/poPiJGG3GfZlvmDvBwDigvZVGeGGpi/2VUNCBoBFpP7bSCtXAOAZSXenEvLWP9MG4Hbce5bUAeQlDbQ8YRaMqoaHGMKSOYLQAw0qQJAMA+Ml72e4aoMqq3NWy+3+a+o5g130/HMc2AoAcbQBLaBGgbeoBLqfqMz/gu8jO93mbO5zhm61zvmXk9exBVilgImxenhvyM8HBGchhBVU9pN7vf2WgvoB44ri+UNqGiC2/VfIWErluedk1U13O3b9/+6voN/Ur6pPxxm5vzbPOUkmu32CK25zqx4jV9RUTUpOe/+OKLdreBjEfbfR+UiIiegPan8khPG13YgxlERE83BiZqDoMoEV0yXz2VR0RExMBERES+wsBERES+wsBERES+wsBERES+wsBERES+wsBERES+wsBERES+wsBERES+wsBERES+wsDUDOOPrVaVlxZdQJ2nJ2cEylbzNaCIiC5TmwOTjPXDIhSzQqZx42//Tb1O0b7cJAZrlpf2Kz3wtP98eiSrrQVJccAgXk+GlGpucxXuIyJf8tGMSa/6erpUu5rnEyUP4cpGFnn0I+KhFLmDUaW07X3wxCgR/1SX2hiBIvdjx6i4O7UBR8XVqFJEAlmramwGcWwrZ5dWJ6L28U1gSql6WW33Dd0x2nWNpqNK0d52qNqlv2OL2N5aRErY3szNKDUkYaeQRn4XuBPy+jojLVZj1B5VilVtT6nONjXqZyspN/3c6BV3gxM12mWkHKtnETLWD1Uoxrlbl43Zo/v8HtrtdczIXNvcfaz9tXGMiYBV0dj77GYNybtCtdbCHjSjCrBeaRbIv2fVR8dwHyANRJi6JPIxfwSmkIoEslVlqaNKEWPH09Zod2q3H2+ZNzZZxULHqrWtewlIiDcyKYSEuX2mAITH7RtrQzKGr+4hn9NvcvB8EzNmHz1ZlF1b1OQqypI4+5Ix3Kdhp7B2dj9bpCaH0d0zjbyml1rX923fwM2Z3dSGVuPVAUQ6VjG1oSE4MYrKTBZlSOiK6W1fn+vEinnee7LAhBG0YovYnrNnL909WZyG5z2kEtO4Z6ZItQKmzH2b5b/FINogZQcA0VA/pNKmXl031oUr0FDJGW07HEVlqSAELiLyIx8EJgmRcKDG90cQGZAgheetm9FCWILUod9SUkMBoC9u36gmAsDVLiGI7CNj3thyeexo5o0VVTc6cRQfVUYRPKnoqa1cHjutpPOqpJHZEGZf8hCCpVUjSDTup+5Jp9w0e5ZhtRN22xFAwjp/cQTNoHWrE5Lj59MoloAr186ZOjOCqPPfsLNdgD5YCWv2+y58/+FcJ1Z6hpG8f76mENHl80GhQA35mXcBeR7bStk1a9KQn6lxAzKUW12PSkfRXfN1epCAFMfDw7jditAIkFur9QLP1MIe3pIjiGINwaEAypviPKxxP32nlLVnM6LLeq5AVvWBh4PrnMkqHk4AmZ6oPlsCgFwFp3MhJGIFTPUYQf1WJyTtqGpWS0T+4YMZE6DPCNxpnzVUTiTHQraofKwhOKF6S8/J44hAT881FIvgjrSPjDgynyk0kc5rIDeJlZN+RGIyhq8WkLHu6437qWv1se41VE4uYMYiun8ErS9eOz13/wha36jjKcsxIWUJwJ4JyioSfTVeXyvNdsaMKaoUq4OS/kIUS4C2mzdmmiNQYgHhayLyI58EJgBI495MAVcm7NTabHQaeQiL4cJCu5ocRqYkppTcDzgI2yaAjIc0mGN9wpSr4FQKISHDTgGKi/RWsDAfEtBTW5G56nWQ2U0Nkbk4kHO2pVE/z2v2vQJgpQnt9pgPjiyEJTsl6uVhg9wkBpf2hQcqhHOQm8Tgkmb0/QAP50I4XbIDyOx7BWjmsWJHyLjXt3KTWBHfU08PP8hIhCU43u9D5zW0M2D2X3/Axr2WSUT+8tzNmze/6n3lGwCAT8oft7k5FyS2iO25TqxUjaCJiMjvnn/hhRfa3QYiIiKLj1J5REREvngq7xLkJjH4tDzhRkREDpwxERGRrzAwERGRrzAwERGRrzAwERGRrzAwERGRrzAwERGRrzAwERGRrzAwERGRrzAwERGRrzAwERGRrzAwXTSjNMZFla1onV7Dqf3t8Ci2iG13GQ0335xbIrpMvghMKVWo7eP3G4+stlCwj86Um8RgTy+6l/bb3RIiarM2/xHXEShb84hAKH39tKtbtp3OjeeW6JnQ3hmTWcq8bnVZo6R4jRRPVCliW1k0qsYe4OGhUGY9tojtrUUoar1ZmCy8zl35FnalWsdrjdeI1WsdVVbFtjor11ptqnPMlHqAdaVRKqvV0uo2s2Kt+7i1zq348/XObUrYXnX+6nGdA+/9qX9uo0qxaj8p1Xs/ich/2huYbnVC0o5QrrlRn03d2Z1Gd08vunt6kTkJYUEoty2FQ8CSsa0UwJh4g5RCiCCrv3ZpH8GYeUMagbI1ispMr7HfaewMvGnf7Au4ZdwAAANESURBVGQVDyck5K3tvbiXBoA07pmpJq2AKWNbd9Qcwq8hebcX3T3Z6v7EFrE9148da59ZnIbnHcEyGDa362XWExeYzowqRSwM7GGqp9cqKx5Vihg7ts/t1G4/3jLPn6xioWPV2ta9BCTEMudSCAlz+0wBCI/bgasRM10nvJ/e+ln/3KrJVZSlfkSsYCVjuE/DTsFDP4nIl9oamKLXpAZbg+iS9rFi3EgBYHZzH7jaZY94S1kjaADlYw1SR1B4/T4yZtC4fwRN6kQQMGZpEiJz5ih6HhFJQtct/UdTQwFoG+8ieZH1nG51QiqtCvtMo1gCrlyzb5D2MddQOXFus27MdWeW9QUnDvQg43jtCCIDEqTwvDWTWAhL1vlLDQWAvrg9y5gIOM+7eG5zeexoErrEwF53NuqcqSb63P1sRRqZDeBOyAyqQwha57pxP4nIn9q6xqR+qmEhrAeMJ7q+pBUw1cJN/mlUXppGJTaPbaVszZZ0GvIzw3UDcHmp1wr6TWmwDpRS4wiWstYsM6UeYKyFQ7iphT28JUcQxRqCQwGUN8VkXeN+EpH/tDeVl15GXgs400SWMiqamJ4bgRILQNvNny+g5Co4lUJ10zmzm/uQGqWmxNmXV/ePoPWN2unC2CLGhHTT2c6zxrSG5F136nANlRMJEbn2/srHGoITqrf0nDyOCPaQP/PGP4Kuq4B2bCTjYosY6/PYhbPkJrFy0o9ITMbw1QIyVmBs3E8i8qc2Py6+huTdaeSvxlH9sIF9Q7VSbidZ16i/FWncmykAQnrHsbifjmJqQ0Ki3uPruUmslAL2diuommmqOIIwU4XGQn1uEoNLmp0+nAvhdOlJjuL1Pl+ZsNs7G9XXshZq9FNNDiMj9rEqJSdsm0CDh1dEa0jm9u202lwndjY0e7OZAhQfLrECcYNza5jd1BCZiwM5Z1sa9ZOI/Om527dvf3X9hr7A8kn54zY3h3wvtojtuU6s9EQx2+62ENGvpee/+OKLdreBiIjI4ou//EBERGRq819+oKdObhKDfMKNiC4RZ0xEROQrDExEROQrDExEROQrDExEROQrDExEROQrDExEROQrDExEROQrDExEROQrDExEROQr/x/I08xeD3c9iQAAAABJRU5ErkJggg==;" vertex="1" parent="1">
                    <mxGeometry x="558" y="36" width="422" height="174" as="geometry"/>
                </mxCell>
            </root>
        </mxGraphModel>
    </diagram>
</mxfile>